<svg width="888" height="880" viewBox="0 0 888 880" fill="none" xmlns="http://www.w3.org/2000/svg">
<path d="M824 849C933.352 849 1022 760.352 1022 651C1022 541.648 933.352 453 824 453C714.648 453 626 541.648 626 651C626 760.352 714.648 849 824 849Z" fill="#1C8DD6"/>
<path d="M673 283C716.078 283 751 248.078 751 205C751 161.922 716.078 127 673 127C629.922 127 595 161.922 595 205C595 248.078 629.922 283 673 283Z" fill="#1C8DD6"/>
<path opacity="0.497791" d="M898 78C919.539 78 937 60.5391 937 39C937 17.4609 919.539 0 898 0C876.461 0 859 17.4609 859 39C859 60.5391 876.461 78 898 78Z" fill="#1C8DD6"/>
<path opacity="0.498675" d="M50 768C77.6142 768 100 745.614 100 718C100 690.386 77.6142 668 50 668C22.3858 668 0 690.386 0 718C0 745.614 22.3858 768 50 768Z" fill="#1C8DD6"/>
<path opacity="0.139718" fill-rule="evenodd" clip-rule="evenodd" d="M51.0745 367.096C50.279 369.776 50.0065 394.791 50 427.561V430.151C50.0138 497.61 51.097 724.451 51.076 730.07C50.9492 763.417 70.7884 798.422 120.556 832.655C193.48 882.818 247.599 863.026 300.092 851.101C343.713 841.193 384.829 831.284 431 857C532.734 913.664 602.729 853.831 709.732 783.074C738.187 764.258 751.611 741.995 753.166 717.937C753.572 711.672 754.473 638.502 754.481 572.578V570.696C754.475 518.556 753.899 471.407 752.064 466.168C731.698 408.027 652.602 418.093 561.255 369.127C462.946 316.43 374.03 285.958 295.133 285.962C251.631 285.964 211.164 295.231 173.871 315.146C117.966 344.999 64.8115 320.851 51.0745 367.096Z" fill="url(#paint0_linear)"/>
<path fill-rule="evenodd" clip-rule="evenodd" d="M709.732 550.2C602.73 620.957 534.737 559.758 433.003 503.093C331.269 446.43 254.079 562.728 120.555 470.881C-12.9693 379.034 68.9433 281.629 173.871 225.597C278.799 169.564 408.741 197.825 561.255 279.579C711.188 359.948 816.735 479.442 709.732 550.2Z" fill="#076FB1"/>
<path fill-rule="evenodd" clip-rule="evenodd" d="M291.283 386.197C291.486 389.386 295.735 391.61 295.735 391.61L492.314 500.835C492.314 500.835 497.935 504.394 504.704 500.835C511.974 497.013 661.815 409.034 661.815 409.034C661.815 409.034 667.995 406.197 668.431 401.129C668.443 401.345 668.457 401.561 668.457 401.793V409.804C668.457 415.224 661.815 418.271 661.815 418.271C661.815 418.271 511.974 501.338 504.704 505.16C497.935 508.719 492.314 505.16 492.314 505.16L295.735 395.936C295.735 395.936 291.264 393.603 291.264 390.29V387.206C291.268 387.128 291.271 386.265 291.276 385.654C291.279 385.945 291.282 386.171 291.283 386.197Z" fill="#DDDDFC"/>
<path fill-rule="evenodd" clip-rule="evenodd" d="M295.096 379.706L458.082 284.101C463.958 280.91 468.173 284.101 468.173 284.101L661.815 391.853C661.815 391.853 668.456 395.411 668.456 400.566C668.456 400.757 668.446 400.944 668.43 401.128C667.995 406.196 661.815 409.034 661.815 409.034C661.815 409.034 511.974 497.012 504.704 500.835C497.934 504.394 492.314 500.835 492.314 500.835L295.734 391.61C295.734 391.61 291.486 389.385 291.283 386.197C291.282 386.171 291.279 385.944 291.276 385.654C291.271 385.075 291.264 384.235 291.264 384.183C291.264 381.627 295.096 379.706 295.096 379.706Z" fill="#F6F6FF"/>
<path fill-rule="evenodd" clip-rule="evenodd" d="M675.936 392.516C676.105 392.416 676.266 392.311 676.422 392.202C680.696 389.202 679.994 382.655 679.994 382.655C679.994 382.655 680 218.846 679.604 210.893C679.235 203.487 673.143 200.735 673.143 200.735L473.638 91.6087C473.638 91.6087 469.447 89.286 466.511 90.7817C466.487 90.7943 466.284 90.9099 466.024 91.059C465.883 91.1412 465.724 91.2318 465.566 91.3223C465.566 91.3223 465.567 91.3223 465.567 91.3216C466.377 90.8054 467.985 90.03 468.503 89.7325C468.761 89.5835 468.965 89.4678 468.988 89.456C471.925 87.9595 477.217 90.6257 477.217 90.6257L676.722 199.752C676.722 199.752 682.813 202.504 683.182 209.911C683.579 217.864 683.572 381.672 683.572 381.672C683.572 381.672 684.275 388.219 680 391.219C679.845 391.328 679.685 391.433 679.515 391.533C674.938 394.22 670.458 393.42 670.458 393.42H670.457C672.271 393.644 674.244 393.51 675.936 392.516Z" fill="#DDDDFC"/>
<path fill-rule="evenodd" clip-rule="evenodd" d="M464.711 91.8166C464.746 91.7964 465.149 91.5631 465.566 91.322C465.724 91.2314 465.882 91.1402 466.024 91.0587C466.284 90.9096 466.486 90.7939 466.51 90.7814C469.447 89.2856 473.639 91.6083 473.639 91.6083L673.143 200.734C673.143 200.734 679.235 203.487 679.603 210.893C680.001 218.846 679.993 382.655 679.993 382.655C679.993 382.655 680.697 389.201 676.422 392.201C676.266 392.31 676.105 392.416 675.936 392.515C674.244 393.51 672.271 393.643 670.458 393.42C667.365 393.038 664.735 391.613 664.735 391.613L468.07 281.742C468.07 281.742 463.037 279.949 462.809 273.468L462.733 97.2924C462.733 97.2924 462.442 93.1487 464.711 91.8166Z" fill="#F6F6FF"/>
<path fill-rule="evenodd" clip-rule="evenodd" d="M613.872 396.527L613.84 396.289C613.844 396.368 613.855 396.447 613.872 396.527Z" fill="#DDDDFC"/>
<path fill-rule="evenodd" clip-rule="evenodd" d="M613.838 396.276L613.84 396.29C613.84 396.285 613.84 396.281 613.84 396.276H613.838Z" fill="#DDDDFC"/>
<path fill-rule="evenodd" clip-rule="evenodd" d="M640.246 398.012L630.198 403.55C628.382 404.551 627.205 404.456 625.701 403.67L614.886 397.744C614.275 397.381 613.968 396.958 613.872 396.527L613.987 397.381C614.063 397.817 614.451 398.181 614.929 398.464L625.745 404.391C627.248 405.177 628.425 405.273 630.24 404.273L640.289 398.733C640.909 398.392 641.501 398.151 641.562 397.466L641.643 396.211H641.638C641.607 396.899 641.106 397.537 640.246 398.012Z" fill="#DDDDFC"/>
<path fill-rule="evenodd" clip-rule="evenodd" d="M594.036 385.522L594.004 385.284C594.008 385.363 594.019 385.442 594.036 385.522Z" fill="#DDDDFC"/>
<path fill-rule="evenodd" clip-rule="evenodd" d="M594.002 385.271L594.004 385.283V385.271H594.002Z" fill="#DDDDFC"/>
<path fill-rule="evenodd" clip-rule="evenodd" d="M620.409 387.006L610.362 392.545C608.547 393.545 607.369 393.449 605.865 392.663L595.05 386.736C594.439 386.375 594.133 385.952 594.036 385.521L594.152 386.375C594.228 386.811 594.614 387.174 595.093 387.458L605.91 393.386C607.412 394.171 608.589 394.267 610.404 393.266L620.454 387.727C621.072 387.385 621.666 387.145 621.725 386.459L621.807 385.204L621.802 385.205C621.771 385.893 621.27 386.531 620.409 387.006Z" fill="#DDDDFC"/>
<path fill-rule="evenodd" clip-rule="evenodd" d="M600.79 375.841L590.742 381.38C588.927 382.381 587.749 382.285 586.245 381.499L575.43 375.571C574.819 375.211 574.512 374.786 574.416 374.355L574.531 375.21C574.607 375.647 574.995 376.01 575.473 376.292L586.288 382.22C587.792 383.006 588.969 383.102 590.784 382.101L600.833 376.562C601.452 376.221 602.044 375.98 602.105 375.295L602.187 374.04H602.182C602.151 374.728 601.65 375.366 600.79 375.841Z" fill="#DDDDFC"/>
<path fill-rule="evenodd" clip-rule="evenodd" d="M555.277 362.785L555.245 362.548C555.249 362.627 555.26 362.706 555.277 362.785Z" fill="#DDDDFC"/>
<path fill-rule="evenodd" clip-rule="evenodd" d="M555.243 362.535L555.245 362.548V362.535H555.243Z" fill="#DDDDFC"/>
<path fill-rule="evenodd" clip-rule="evenodd" d="M581.651 364.27L571.603 369.809C569.787 370.809 568.61 370.714 567.107 369.929L556.291 364.001C555.68 363.638 555.373 363.216 555.277 362.785L555.392 363.638C555.468 364.076 555.856 364.439 556.334 364.722L567.15 370.649C568.653 371.435 569.83 371.531 571.646 370.531L581.694 364.991C582.313 364.649 582.906 364.409 582.967 363.724L583.048 362.469H583.042C583.012 363.157 582.511 363.796 581.651 364.27Z" fill="#DDDDFC"/>
<path fill-rule="evenodd" clip-rule="evenodd" d="M535.441 351.779L535.408 351.541C535.413 351.62 535.424 351.699 535.441 351.779Z" fill="#DDDDFC"/>
<path fill-rule="evenodd" clip-rule="evenodd" d="M535.407 351.528L535.408 351.542V351.528H535.407Z" fill="#DDDDFC"/>
<path fill-rule="evenodd" clip-rule="evenodd" d="M561.815 353.263L551.767 358.803C549.952 359.803 548.775 359.708 547.271 358.922L536.455 352.994C535.843 352.634 535.538 352.209 535.441 351.779L535.556 352.633C535.632 353.069 536.019 353.433 536.499 353.716L547.314 359.644C548.818 360.429 549.994 360.525 551.809 359.524L561.858 353.985C562.477 353.642 563.071 353.404 563.13 352.717L563.211 351.462L563.207 351.463C563.177 352.151 562.676 352.789 561.815 353.263Z" fill="#DDDDFC"/>
<path fill-rule="evenodd" clip-rule="evenodd" d="M542.194 342.099L532.146 347.638C530.332 348.639 529.154 348.543 527.65 347.757L516.834 341.829C516.224 341.469 515.916 341.044 515.821 340.613L515.936 341.468C516.012 341.905 516.4 342.267 516.878 342.55L527.693 348.477C529.197 349.264 530.374 349.36 532.189 348.36L542.238 342.82C542.858 342.479 543.449 342.237 543.51 341.553L543.591 340.298H543.586C543.556 340.985 543.055 341.624 542.194 342.099Z" fill="#DDDDFC"/>
<path fill-rule="evenodd" clip-rule="evenodd" d="M496.216 329.361L496.217 329.374C496.217 329.369 496.218 329.366 496.217 329.361H496.216Z" fill="#DDDDFC"/>
<path fill-rule="evenodd" clip-rule="evenodd" d="M522.623 331.096L512.576 336.634C510.76 337.635 509.583 337.539 508.078 336.754L497.263 330.827C496.653 330.465 496.346 330.041 496.25 329.61L496.365 330.465C496.439 330.901 496.828 331.264 497.307 331.548L508.122 337.474C509.625 338.261 510.803 338.357 512.618 337.356L522.666 331.817C523.286 331.475 523.878 331.234 523.938 330.549L524.021 329.294H524.016C523.985 329.983 523.483 330.62 522.623 331.096Z" fill="#DDDDFC"/>
<path fill-rule="evenodd" clip-rule="evenodd" d="M476.414 318.605L476.381 318.367C476.386 318.446 476.397 318.525 476.414 318.605Z" fill="#DDDDFC"/>
<path fill-rule="evenodd" clip-rule="evenodd" d="M476.38 318.354L476.382 318.368V318.354H476.38Z" fill="#DDDDFC"/>
<path fill-rule="evenodd" clip-rule="evenodd" d="M502.787 320.09L492.74 325.629C490.925 326.63 489.746 326.533 488.243 325.747L477.427 319.819C476.817 319.459 476.51 319.035 476.414 318.605L476.529 319.458C476.605 319.896 476.992 320.258 477.471 320.542L488.287 326.469C489.79 327.254 490.967 327.351 492.782 326.35L502.831 320.81C503.45 320.469 504.042 320.229 504.103 319.544L504.184 318.288L504.18 318.289C504.149 318.976 503.648 319.615 502.787 320.09Z" fill="#DDDDFC"/>
<path fill-rule="evenodd" clip-rule="evenodd" d="M483.168 308.924L473.119 314.463C471.305 315.464 470.127 315.368 468.622 314.582L457.806 308.655C457.196 308.294 456.89 307.869 456.794 307.439L456.909 308.294C456.984 308.73 457.373 309.093 457.85 309.375L468.666 315.303C470.168 316.09 471.347 316.185 473.162 315.184L483.209 309.645C483.829 309.304 484.422 309.063 484.482 308.378L484.563 307.123H484.56C484.529 307.811 484.028 308.45 483.168 308.924Z" fill="#DDDDFC"/>
<path fill-rule="evenodd" clip-rule="evenodd" d="M594.358 407.693L594.326 407.455C594.331 407.535 594.341 407.613 594.358 407.693Z" fill="#DDDDFC"/>
<path fill-rule="evenodd" clip-rule="evenodd" d="M594.325 407.442L594.326 407.456C594.326 407.45 594.327 407.447 594.326 407.442H594.325Z" fill="#DDDDFC"/>
<path fill-rule="evenodd" clip-rule="evenodd" d="M574.522 396.687L574.49 396.449C574.495 396.528 574.506 396.607 574.522 396.687Z" fill="#DDDDFC"/>
<path fill-rule="evenodd" clip-rule="evenodd" d="M574.488 396.437L574.49 396.45C574.491 396.446 574.49 396.441 574.49 396.437H574.488Z" fill="#DDDDFC"/>
<path fill-rule="evenodd" clip-rule="evenodd" d="M600.896 398.172L590.849 403.711C589.034 404.712 587.856 404.615 586.352 403.829L575.536 397.902C574.926 397.541 574.619 397.118 574.522 396.687L574.638 397.541C574.714 397.978 575.1 398.34 575.58 398.624L586.396 404.552C587.898 405.337 589.076 405.433 590.891 404.432L600.94 398.893C601.559 398.551 602.151 398.311 602.212 397.626L602.293 396.37L602.289 396.371C602.259 397.059 601.757 397.697 600.896 398.172Z" fill="#DDDDFC"/>
<path fill-rule="evenodd" clip-rule="evenodd" d="M581.276 387.006L571.228 392.545C569.413 393.546 568.235 393.45 566.732 392.664L555.915 386.736C555.305 386.376 554.999 385.951 554.902 385.521L555.017 386.375C555.092 386.812 555.48 387.175 555.959 387.457L566.774 393.385C568.278 394.172 569.457 394.267 571.271 393.266L581.319 387.727C581.938 387.386 582.532 387.145 582.592 386.46L582.673 385.205H582.668C582.637 385.893 582.136 386.532 581.276 387.006Z" fill="#DDDDFC"/>
<path fill-rule="evenodd" clip-rule="evenodd" d="M535.764 373.95L535.731 373.713C535.735 373.792 535.746 373.87 535.764 373.95Z" fill="#DDDDFC"/>
<path fill-rule="evenodd" clip-rule="evenodd" d="M535.73 373.7L535.731 373.713C535.731 373.709 535.732 373.704 535.731 373.7H535.73Z" fill="#DDDDFC"/>
<path fill-rule="evenodd" clip-rule="evenodd" d="M562.137 375.435L552.089 380.973C550.274 381.975 549.097 381.879 547.593 381.094L536.777 375.167C536.167 374.804 535.859 374.381 535.764 373.95L535.879 374.804C535.954 375.241 536.342 375.604 536.82 375.888L547.636 381.815C549.138 382.601 550.317 382.696 552.132 381.696L562.181 376.157C562.8 375.815 563.392 375.574 563.453 374.889L563.534 373.635H563.53C563.499 374.322 562.998 374.961 562.137 375.435Z" fill="#DDDDFC"/>
<path fill-rule="evenodd" clip-rule="evenodd" d="M515.927 362.945L515.895 362.707C515.9 362.786 515.911 362.865 515.927 362.945Z" fill="#DDDDFC"/>
<path fill-rule="evenodd" clip-rule="evenodd" d="M515.893 362.694L515.895 362.708C515.896 362.703 515.895 362.699 515.895 362.694H515.893Z" fill="#DDDDFC"/>
<path fill-rule="evenodd" clip-rule="evenodd" d="M542.301 364.429L532.253 369.969C530.439 370.969 529.261 370.873 527.758 370.087L516.941 364.159C516.331 363.798 516.024 363.375 515.927 362.944L516.043 363.798C516.119 364.235 516.505 364.598 516.985 364.881L527.801 370.809C529.303 371.594 530.481 371.691 532.296 370.69L542.345 365.15C542.964 364.808 543.556 364.569 543.616 363.883L543.698 362.628H543.693C543.664 363.316 543.162 363.954 542.301 364.429Z" fill="#DDDDFC"/>
<path fill-rule="evenodd" clip-rule="evenodd" d="M522.681 353.264L512.633 358.803C510.818 359.803 509.64 359.708 508.136 358.922L497.32 352.995C496.71 352.634 496.404 352.209 496.307 351.778L496.423 352.634C496.497 353.069 496.887 353.433 497.364 353.715L508.18 359.643C509.683 360.429 510.861 360.525 512.676 359.524L522.724 353.985C523.343 353.643 523.937 353.403 523.996 352.718L524.078 351.463H524.073C524.042 352.151 523.541 352.789 522.681 353.264Z" fill="#DDDDFC"/>
<path fill-rule="evenodd" clip-rule="evenodd" d="M476.736 340.777L476.704 340.539C476.709 340.618 476.719 340.698 476.736 340.777Z" fill="#DDDDFC"/>
<path fill-rule="evenodd" clip-rule="evenodd" d="M476.702 340.526L476.704 340.54C476.704 340.535 476.704 340.531 476.704 340.526H476.702Z" fill="#DDDDFC"/>
<path fill-rule="evenodd" clip-rule="evenodd" d="M503.109 342.261L493.062 347.799C491.247 348.801 490.069 348.704 488.566 347.92L477.749 341.992C477.139 341.63 476.832 341.207 476.736 340.776L476.851 341.63C476.927 342.067 477.315 342.43 477.792 342.713L488.609 348.641C490.111 349.427 491.29 349.522 493.104 348.521L503.153 342.983C503.772 342.641 504.364 342.4 504.426 341.715L504.507 340.46H504.502C504.472 341.148 503.97 341.786 503.109 342.261Z" fill="#DDDDFC"/>
<path fill-rule="evenodd" clip-rule="evenodd" d="M456.9 329.771L456.868 329.533C456.872 329.612 456.884 329.692 456.9 329.771Z" fill="#DDDDFC"/>
<path fill-rule="evenodd" clip-rule="evenodd" d="M456.866 329.521L456.868 329.534V329.521H456.866Z" fill="#DDDDFC"/>
<path fill-rule="evenodd" clip-rule="evenodd" d="M483.273 331.255L473.226 336.795C471.411 337.795 470.234 337.699 468.73 336.913L457.914 330.985C457.304 330.625 456.997 330.201 456.9 329.77L457.015 330.625C457.092 331.061 457.478 331.423 457.958 331.707L468.774 337.635C470.276 338.42 471.454 338.517 473.269 337.516L483.318 331.976C483.937 331.634 484.529 331.395 484.589 330.709L484.671 329.453L484.666 329.454C484.635 330.142 484.134 330.781 483.273 331.255Z" fill="#DDDDFC"/>
<path fill-rule="evenodd" clip-rule="evenodd" d="M573.275 418.858L573.243 418.62C573.246 418.7 573.258 418.778 573.275 418.858Z" fill="#DDDDFC"/>
<path fill-rule="evenodd" clip-rule="evenodd" d="M573.241 418.607L573.243 418.621C573.242 418.616 573.244 418.612 573.242 418.607H573.241Z" fill="#DDDDFC"/>
<path fill-rule="evenodd" clip-rule="evenodd" d="M553.44 407.853L553.407 407.615C553.411 407.694 553.423 407.773 553.44 407.853Z" fill="#DDDDFC"/>
<path fill-rule="evenodd" clip-rule="evenodd" d="M553.405 407.602L553.407 407.615V407.602H553.405Z" fill="#DDDDFC"/>
<path fill-rule="evenodd" clip-rule="evenodd" d="M579.813 409.337L569.765 414.876C567.95 415.876 566.772 415.78 565.269 414.994L554.452 409.067C553.842 408.706 553.535 408.283 553.44 407.852L553.554 408.706C553.63 409.142 554.017 409.505 554.497 409.789L565.313 415.717C566.815 416.502 567.992 416.598 569.808 415.597L579.856 410.058C580.475 409.716 581.068 409.476 581.129 408.791L581.21 407.535L581.205 407.536C581.174 408.224 580.673 408.862 579.813 409.337Z" fill="#DDDDFC"/>
<path fill-rule="evenodd" clip-rule="evenodd" d="M560.193 398.172L550.144 403.711C548.33 404.712 547.153 404.616 545.648 403.83L534.832 397.903C534.221 397.542 533.915 397.117 533.819 396.687L533.934 397.541C534.01 397.978 534.398 398.341 534.875 398.623L545.691 404.551C547.194 405.338 548.372 405.433 550.188 404.432L560.236 398.893C560.855 398.552 561.448 398.311 561.507 397.626L561.588 396.371H561.586C561.554 397.059 561.053 397.698 560.193 398.172Z" fill="#DDDDFC"/>
<path fill-rule="evenodd" clip-rule="evenodd" d="M514.68 385.115L514.648 384.878C514.651 384.958 514.663 385.036 514.68 385.115Z" fill="#DDDDFC"/>
<path fill-rule="evenodd" clip-rule="evenodd" d="M514.646 384.865L514.648 384.878C514.647 384.873 514.649 384.869 514.647 384.865H514.646Z" fill="#DDDDFC"/>
<path fill-rule="evenodd" clip-rule="evenodd" d="M541.053 386.6L531.006 392.139C529.19 393.14 528.013 393.044 526.509 392.259L515.693 386.332C515.084 385.969 514.776 385.546 514.68 385.115L514.795 385.969C514.87 386.406 515.258 386.769 515.738 387.053L526.552 392.979C528.055 393.765 529.234 393.861 531.049 392.861L541.096 387.322C541.716 386.98 542.309 386.739 542.369 386.055L542.451 384.8H542.446C542.415 385.487 541.913 386.126 541.053 386.6Z" fill="#DDDDFC"/>
<path fill-rule="evenodd" clip-rule="evenodd" d="M494.844 374.111L494.812 373.873C494.816 373.952 494.827 374.031 494.844 374.111Z" fill="#DDDDFC"/>
<path fill-rule="evenodd" clip-rule="evenodd" d="M494.81 373.859L494.812 373.873V373.859H494.81Z" fill="#DDDDFC"/>
<path fill-rule="evenodd" clip-rule="evenodd" d="M521.218 375.595L511.171 381.134C509.355 382.134 508.177 382.038 506.674 381.252L495.857 375.325C495.247 374.964 494.94 374.54 494.844 374.11L494.96 374.964C495.035 375.4 495.422 375.763 495.902 376.047L506.718 381.975C508.22 382.76 509.397 382.856 511.213 381.855L521.261 376.316C521.88 375.974 522.473 375.734 522.534 375.049L522.615 373.793L522.61 373.794C522.579 374.482 522.078 375.12 521.218 375.595Z" fill="#DDDDFC"/>
<path fill-rule="evenodd" clip-rule="evenodd" d="M501.598 364.429L491.549 369.969C489.735 370.969 488.557 370.873 487.053 370.087L476.237 364.16C475.627 363.799 475.319 363.374 475.224 362.944L475.339 363.798C475.414 364.234 475.802 364.598 476.28 364.881L487.096 370.808C488.599 371.595 489.777 371.69 491.593 370.69L501.64 365.15C502.26 364.808 502.853 364.568 502.913 363.884L502.993 362.628H502.99C502.959 363.316 502.458 363.954 501.598 364.429Z" fill="#DDDDFC"/>
<path fill-rule="evenodd" clip-rule="evenodd" d="M455.653 351.942L455.62 351.704C455.624 351.784 455.636 351.862 455.653 351.942Z" fill="#DDDDFC"/>
<path fill-rule="evenodd" clip-rule="evenodd" d="M455.619 351.691L455.62 351.705C455.62 351.7 455.621 351.696 455.62 351.691H455.619Z" fill="#DDDDFC"/>
<path fill-rule="evenodd" clip-rule="evenodd" d="M482.026 353.427L471.978 358.966C470.163 359.967 468.986 359.871 467.482 359.086L456.666 353.158C456.057 352.796 455.748 352.373 455.653 351.942L455.768 352.796C455.843 353.233 456.231 353.596 456.709 353.88L467.525 359.807C469.028 360.592 470.207 360.688 472.021 359.688L482.069 354.149C482.689 353.807 483.281 353.566 483.342 352.881L483.423 351.626H483.419C483.388 352.314 482.886 352.952 482.026 353.427Z" fill="#DDDDFC"/>
<path fill-rule="evenodd" clip-rule="evenodd" d="M435.817 340.937L435.785 340.699C435.789 340.778 435.8 340.857 435.817 340.937Z" fill="#DDDDFC"/>
<path fill-rule="evenodd" clip-rule="evenodd" d="M435.783 340.686L435.785 340.699V340.686H435.783Z" fill="#DDDDFC"/>
<path fill-rule="evenodd" clip-rule="evenodd" d="M462.19 342.421L452.143 347.96C450.328 348.961 449.15 348.865 447.647 348.079L436.83 342.151C436.22 341.791 435.912 341.367 435.817 340.937L435.932 341.791C436.007 342.227 436.395 342.59 436.874 342.872L447.689 348.801C449.192 349.586 450.37 349.682 452.186 348.681L462.234 343.142C462.853 342.8 463.446 342.561 463.505 341.876L463.586 340.62L463.583 340.621C463.552 341.308 463.05 341.947 462.19 342.421Z" fill="#DDDDFC"/>
<path fill-rule="evenodd" clip-rule="evenodd" d="M463.653 320.267L453.607 325.807C451.791 326.808 450.614 326.711 449.11 325.925L438.294 319.998C437.684 319.637 437.377 319.213 437.28 318.783L437.395 319.637C437.472 320.074 437.858 320.436 438.338 320.719L449.154 326.647C450.656 327.433 451.833 327.529 453.649 326.528L463.698 320.988C464.317 320.646 464.91 320.407 464.969 319.721L465.051 318.466L465.046 318.467C465.015 319.154 464.514 319.793 463.653 320.267Z" fill="#DDDDFC"/>
<path fill-rule="evenodd" clip-rule="evenodd" d="M442.57 331.432L432.523 336.972C430.708 337.972 429.53 337.876 428.027 337.09L417.211 331.162C416.6 330.802 416.292 330.378 416.197 329.948L416.312 330.801C416.387 331.238 416.775 331.601 417.255 331.885L428.07 337.812C429.573 338.597 430.75 338.694 432.566 337.693L442.614 332.153C443.234 331.811 443.826 331.572 443.885 330.886L443.966 329.631L443.963 329.632C443.932 330.319 443.43 330.957 442.57 331.432Z" fill="#DDDDFC"/>
<path fill-rule="evenodd" clip-rule="evenodd" d="M620.481 409.256L589.349 425.895C587.534 426.896 586.357 426.8 584.854 426.014L574.038 420.086C573.426 419.726 573.121 419.301 573.024 418.87L573.139 419.725C573.214 420.162 573.604 420.525 574.081 420.807L584.898 426.735C586.4 427.521 587.578 427.617 589.394 426.616L620.524 409.977C621.143 409.636 621.737 409.395 621.797 408.71L621.879 407.455H621.873C621.842 408.143 621.341 408.782 620.481 409.256Z" fill="#DDDDFC"/>
<path fill-rule="evenodd" clip-rule="evenodd" d="M553.762 430.024L553.729 429.786C553.733 429.866 553.744 429.944 553.762 430.024Z" fill="#DDDDFC"/>
<path fill-rule="evenodd" clip-rule="evenodd" d="M553.728 429.773L553.729 429.786C553.729 429.781 553.73 429.778 553.729 429.773H553.728Z" fill="#DDDDFC"/>
<path fill-rule="evenodd" clip-rule="evenodd" d="M580.135 431.508L570.087 437.047C568.272 438.048 567.095 437.952 565.592 437.167L554.775 431.24C554.165 430.877 553.857 430.454 553.762 430.024L553.876 430.877C553.952 431.314 554.34 431.677 554.817 431.961L565.634 437.888C567.137 438.673 568.315 438.77 570.13 437.769L580.178 432.23C580.798 431.888 581.39 431.648 581.451 430.963L581.532 429.708H581.528C581.496 430.396 580.995 431.034 580.135 431.508Z" fill="#DDDDFC"/>
<path fill-rule="evenodd" clip-rule="evenodd" d="M533.926 419.018L533.893 418.78C533.897 418.859 533.909 418.938 533.926 419.018Z" fill="#DDDDFC"/>
<path fill-rule="evenodd" clip-rule="evenodd" d="M533.892 418.768L533.893 418.781C533.895 418.776 533.893 418.772 533.893 418.768H533.892Z" fill="#DDDDFC"/>
<path fill-rule="evenodd" clip-rule="evenodd" d="M560.298 420.503L550.251 426.042C548.436 427.042 547.26 426.946 545.755 426.16L534.939 420.233C534.33 419.872 534.022 419.449 533.926 419.018L534.04 419.872C534.117 420.308 534.504 420.671 534.983 420.955L545.799 426.882C547.302 427.668 548.478 427.764 550.294 426.763L560.343 421.224C560.962 420.882 561.555 420.642 561.615 419.957L561.696 418.701L561.692 418.702C561.661 419.39 561.16 420.028 560.298 420.503Z" fill="#DDDDFC"/>
<path fill-rule="evenodd" clip-rule="evenodd" d="M540.679 409.337L530.631 414.876C528.816 415.877 527.638 415.781 526.135 414.995L515.318 409.068C514.708 408.707 514.401 408.282 514.305 407.852L514.42 408.707C514.496 409.143 514.884 409.506 515.362 409.788L526.178 415.716C527.68 416.503 528.858 416.598 530.674 415.597L540.722 410.058C541.341 409.717 541.934 409.476 541.995 408.792L542.076 407.536H542.071C542.041 408.224 541.54 408.863 540.679 409.337Z" fill="#DDDDFC"/>
<path fill-rule="evenodd" clip-rule="evenodd" d="M495.166 396.282L495.134 396.044C495.138 396.124 495.149 396.202 495.166 396.282Z" fill="#DDDDFC"/>
<path fill-rule="evenodd" clip-rule="evenodd" d="M495.133 396.031L495.134 396.044C495.134 396.04 495.135 396.035 495.134 396.031H495.133Z" fill="#DDDDFC"/>
<path fill-rule="evenodd" clip-rule="evenodd" d="M521.54 397.766L511.492 403.305C509.677 404.306 508.5 404.21 506.996 403.425L496.18 397.498C495.57 397.135 495.262 396.712 495.166 396.281L495.282 397.135C495.357 397.572 495.745 397.935 496.224 398.219L507.039 404.145C508.542 404.931 509.72 405.027 511.535 404.027L521.583 398.488C522.202 398.146 522.795 397.905 522.856 397.221L522.938 395.966H522.933C522.901 396.653 522.4 397.292 521.54 397.766Z" fill="#DDDDFC"/>
<path fill-rule="evenodd" clip-rule="evenodd" d="M475.331 385.276L475.298 385.038C475.302 385.117 475.314 385.196 475.331 385.276Z" fill="#DDDDFC"/>
<path fill-rule="evenodd" clip-rule="evenodd" d="M475.297 385.025L475.298 385.039V385.025H475.297Z" fill="#DDDDFC"/>
<path fill-rule="evenodd" clip-rule="evenodd" d="M501.703 386.761L491.656 392.3C489.841 393.3 488.664 393.204 487.16 392.418L476.344 386.491C475.735 386.13 475.427 385.707 475.331 385.276L475.445 386.129C475.521 386.566 475.909 386.929 476.387 387.213L487.204 393.141C488.706 393.926 489.883 394.022 491.699 393.021L501.747 387.482C502.366 387.14 502.959 386.9 503.02 386.214L503.101 384.959L503.097 384.96C503.065 385.648 502.564 386.286 501.703 386.761Z" fill="#DDDDFC"/>
<path fill-rule="evenodd" clip-rule="evenodd" d="M482.084 375.595L472.036 381.134C470.221 382.134 469.043 382.039 467.54 381.253L456.724 375.326C456.113 374.965 455.806 374.54 455.71 374.11L455.826 374.964C455.901 375.4 456.289 375.763 456.767 376.046L467.583 381.974C469.086 382.761 470.264 382.855 472.079 381.855L482.127 376.316C482.746 375.975 483.339 375.734 483.4 375.049L483.481 373.794H483.476C483.445 374.482 482.944 375.12 482.084 375.595Z" fill="#DDDDFC"/>
<path fill-rule="evenodd" clip-rule="evenodd" d="M436.14 363.108L436.107 362.87C436.111 362.95 436.121 363.028 436.14 363.108Z" fill="#DDDDFC"/>
<path fill-rule="evenodd" clip-rule="evenodd" d="M436.105 362.857L436.107 362.871C436.106 362.866 436.107 362.862 436.106 362.857H436.105Z" fill="#DDDDFC"/>
<path fill-rule="evenodd" clip-rule="evenodd" d="M462.513 364.592L452.465 370.131C450.649 371.132 449.473 371.036 447.968 370.251L437.153 364.324C436.543 363.961 436.235 363.538 436.14 363.108L436.253 363.961C436.33 364.398 436.718 364.761 437.195 365.045L448.012 370.972C449.515 371.757 450.692 371.854 452.508 370.853L462.555 365.314C463.175 364.972 463.768 364.732 463.829 364.047L463.91 362.792H463.905C463.874 363.48 463.373 364.118 462.513 364.592Z" fill="#DDDDFC"/>
<path fill-rule="evenodd" clip-rule="evenodd" d="M416.303 352.102L416.271 351.864C416.275 351.943 416.286 352.022 416.303 352.102Z" fill="#DDDDFC"/>
<path fill-rule="evenodd" clip-rule="evenodd" d="M416.268 351.852L416.271 351.865V351.852H416.268Z" fill="#DDDDFC"/>
<path fill-rule="evenodd" clip-rule="evenodd" d="M442.676 353.587L432.628 359.127C430.813 360.127 429.637 360.03 428.133 359.245L417.317 353.317C416.706 352.956 416.4 352.533 416.303 352.102L416.418 352.956C416.495 353.393 416.882 353.756 417.361 354.039L428.177 359.967C429.679 360.752 430.856 360.849 432.671 359.848L442.719 354.308C443.339 353.966 443.933 353.726 443.993 353.041L444.074 351.785H444.07C444.038 352.474 443.537 353.112 442.676 353.587Z" fill="#DDDDFC"/>
<path fill-rule="evenodd" clip-rule="evenodd" d="M423.056 342.421L413.008 347.96C411.193 348.962 410.016 348.865 408.511 348.08L397.696 342.152C397.085 341.792 396.779 341.367 396.683 340.936L396.798 341.791C396.874 342.227 397.262 342.591 397.74 342.873L408.555 348.801C410.058 349.587 411.236 349.683 413.052 348.682L423.1 343.142C423.719 342.801 424.312 342.561 424.371 341.876L424.453 340.621H424.448C424.418 341.308 423.917 341.947 423.056 342.421Z" fill="#DDDDFC"/>
<path fill-rule="evenodd" clip-rule="evenodd" d="M532.685 441.189L532.654 440.951C532.658 441.031 532.668 441.109 532.685 441.189Z" fill="#DDDDFC"/>
<path fill-rule="evenodd" clip-rule="evenodd" d="M532.652 440.938L532.654 440.951V440.938H532.652Z" fill="#DDDDFC"/>
<path fill-rule="evenodd" clip-rule="evenodd" d="M559.059 442.673L549.011 448.212C547.196 449.213 546.019 449.117 544.516 448.332L533.699 442.405C533.089 442.042 532.782 441.619 532.685 441.189L532.801 442.042C532.877 442.479 533.265 442.843 533.742 443.126L544.559 449.053C546.061 449.838 547.239 449.935 549.053 448.934L559.102 443.395C559.722 443.053 560.314 442.813 560.375 442.128L560.457 440.873H560.452C560.42 441.561 559.92 442.199 559.059 442.673Z" fill="#DDDDFC"/>
<path fill-rule="evenodd" clip-rule="evenodd" d="M512.85 430.184L512.817 429.945C512.822 430.025 512.833 430.103 512.85 430.184Z" fill="#DDDDFC"/>
<path fill-rule="evenodd" clip-rule="evenodd" d="M512.816 429.933L512.817 429.945C512.818 429.941 512.817 429.937 512.817 429.933H512.816Z" fill="#DDDDFC"/>
<path fill-rule="evenodd" clip-rule="evenodd" d="M539.223 431.668L529.175 437.207C527.36 438.207 526.184 438.111 524.679 437.325L513.864 431.398C513.254 431.037 512.946 430.614 512.85 430.183L512.965 431.037C513.041 431.473 513.428 431.836 513.907 432.12L524.723 438.047C526.226 438.832 527.403 438.929 529.217 437.928L539.267 432.389C539.886 432.047 540.479 431.807 540.538 431.122L540.62 429.866L540.616 429.867C540.585 430.555 540.084 431.193 539.223 431.668Z" fill="#DDDDFC"/>
<path fill-rule="evenodd" clip-rule="evenodd" d="M519.602 420.502L509.555 426.041C507.741 427.042 506.562 426.946 505.059 426.16L416.077 375.53C415.466 375.169 415.159 374.744 415.063 374.313L415.178 375.168C415.254 375.604 415.642 375.967 416.12 376.25L505.103 426.881C506.605 427.668 507.783 427.762 509.598 426.763L519.647 421.223C520.265 420.881 520.858 420.641 520.919 419.956L521 418.701H520.994C520.965 419.389 520.463 420.027 519.602 420.502Z" fill="#DDDDFC"/>
<path fill-rule="evenodd" clip-rule="evenodd" d="M474.091 407.446L474.058 407.209C474.063 407.288 474.074 407.367 474.091 407.446Z" fill="#DDDDFC"/>
<path fill-rule="evenodd" clip-rule="evenodd" d="M474.057 407.196L474.058 407.21C474.058 407.205 474.059 407.2 474.058 407.196H474.057Z" fill="#DDDDFC"/>
<path fill-rule="evenodd" clip-rule="evenodd" d="M454.255 396.441L454.222 396.203C454.227 396.282 454.238 396.361 454.255 396.441Z" fill="#DDDDFC"/>
<path fill-rule="evenodd" clip-rule="evenodd" d="M454.221 396.19L454.222 396.204V396.19H454.221Z" fill="#DDDDFC"/>
<path fill-rule="evenodd" clip-rule="evenodd" d="M415.063 374.273L415.032 374.035C415.035 374.115 415.046 374.193 415.063 374.273Z" fill="#DDDDFC"/>
<path fill-rule="evenodd" clip-rule="evenodd" d="M415.029 374.022L415.032 374.036C415.03 374.031 415.032 374.027 415.03 374.022H415.029Z" fill="#DDDDFC"/>
<path fill-rule="evenodd" clip-rule="evenodd" d="M395.228 363.268L395.195 363.029C395.199 363.109 395.21 363.187 395.228 363.268Z" fill="#DDDDFC"/>
<path fill-rule="evenodd" clip-rule="evenodd" d="M395.194 363.017L395.195 363.029V363.017H395.194Z" fill="#DDDDFC"/>
<path fill-rule="evenodd" clip-rule="evenodd" d="M421.6 364.752L411.553 370.291C409.738 371.292 408.56 371.196 407.057 370.41L396.241 364.482C395.631 364.122 395.324 363.698 395.228 363.267L395.342 364.121C395.419 364.558 395.806 364.921 396.284 365.204L407.101 371.132C408.604 371.917 409.78 372.013 411.595 371.013L421.644 365.473C422.264 365.131 422.857 364.892 422.916 364.206L422.998 362.951H422.994C422.963 363.639 422.461 364.278 421.6 364.752Z" fill="#DDDDFC"/>
<path fill-rule="evenodd" clip-rule="evenodd" d="M401.981 353.587L391.933 359.126C390.118 360.126 388.94 360.03 387.437 359.245L376.621 353.317C376.01 352.956 375.703 352.531 375.607 352.101L375.722 352.956C375.798 353.392 376.186 353.755 376.664 354.038L387.48 359.966C388.983 360.752 390.16 360.847 391.976 359.847L402.024 354.307C402.643 353.966 403.236 353.725 403.296 353.041L403.377 351.785H403.373C403.342 352.473 402.842 353.112 401.981 353.587Z" fill="#DDDDFC"/>
<path fill-rule="evenodd" clip-rule="evenodd" d="M465.805 102.328L465.877 269.378C466.094 275.523 470.865 277.222 470.865 277.222L662.455 384.841C662.455 384.841 664.949 386.191 667.881 386.553C669.6 386.766 671.47 386.638 673.075 385.696C673.236 385.601 673.392 385.506 673.536 385.398C676.964 382.831 676.923 376.345 676.923 376.345V213.482C676.573 206.46 670.428 203.851 670.428 203.851L472.85 95.1436C472.85 95.1436 469.039 93.0815 467.374 94.897C465.603 96.8274 465.805 98.0048 465.805 102.328Z" fill="#076FB1"/>
<path fill-rule="evenodd" clip-rule="evenodd" d="M645.894 423.398L652.768 419.462C653.833 418.852 654.462 417.386 653.87 416.346C654.542 416.428 655.169 416.789 655.543 417.391C656.189 418.435 655.554 419.944 654.469 420.565L647.597 424.501C646.962 424.864 646.22 424.89 645.584 424.647C645.131 424.474 644.729 424.171 644.46 423.738C644.448 423.72 644.44 423.7 644.429 423.68C644.92 423.745 645.435 423.661 645.894 423.398Z" fill="#B6B6DD"/>
<path fill-rule="evenodd" clip-rule="evenodd" d="M645.533 420.565L652.406 416.63C652.778 416.416 653.189 416.324 653.593 416.327C653.686 416.327 653.778 416.334 653.87 416.346C654.462 417.386 653.833 418.853 652.768 419.462L645.894 423.398C645.435 423.661 644.92 423.745 644.429 423.681C643.839 422.64 644.468 421.175 645.533 420.565Z" fill="#C7C7EA"/>
<path fill-rule="evenodd" clip-rule="evenodd" d="M518.46 136.226V295.333L622.765 352.764V193.657L518.46 136.226Z" fill="white"/>
<path fill-rule="evenodd" clip-rule="evenodd" d="M518.46 147.946L622.765 205.377V263.102L518.46 205.67V147.946Z" fill="#DDDDFC"/>
<path fill-rule="evenodd" clip-rule="evenodd" d="M531.017 245.166V260.491L551.713 271.826V256.712L531.017 245.166Z" fill="#DDDDFC"/>
<path fill-rule="evenodd" clip-rule="evenodd" d="M543.326 228.636V233.148L596.668 262.799V258.495L543.326 228.636Z" fill="#DDDDFC"/>
<path fill-rule="evenodd" clip-rule="evenodd" d="M552.34 241.414V245.166L587.848 264.67V261.128L552.34 241.414Z" fill="#DDDDFC"/>
<path fill-rule="evenodd" clip-rule="evenodd" d="M531.017 262.799V264.792L551.713 276.129V274.344L531.017 262.799Z" fill="#DDDDFC"/>
<path fill-rule="evenodd" clip-rule="evenodd" d="M531.017 267.546V269.54L547.479 278.653V276.869L531.017 267.546Z" fill="#DDDDFC"/>
<path fill-rule="evenodd" clip-rule="evenodd" d="M559.027 260.669V275.992L579.723 287.329V272.214L559.027 260.669Z" fill="#DDDDFC"/>
<path fill-rule="evenodd" clip-rule="evenodd" d="M559.027 278.302V280.296L579.723 291.632V289.847L559.027 278.302Z" fill="#DDDDFC"/>
<path fill-rule="evenodd" clip-rule="evenodd" d="M559.027 282.698V284.691L575.491 293.805V292.02L559.027 282.698Z" fill="#DDDDFC"/>
<path fill-rule="evenodd" clip-rule="evenodd" d="M586.942 276.172V291.496L607.637 302.831V287.717L586.942 276.172Z" fill="#DDDDFC"/>
<path fill-rule="evenodd" clip-rule="evenodd" d="M586.996 314.987V322.253L605.252 332.25V325.194L586.996 314.987Z" fill="#DDDDFC"/>
<path fill-rule="evenodd" clip-rule="evenodd" d="M586.942 293.805V295.798L607.637 307.134V305.35L586.942 293.805Z" fill="#DDDDFC"/>
<path fill-rule="evenodd" clip-rule="evenodd" d="M586.996 298.171V300.164L603.459 309.278V307.494L586.996 298.171Z" fill="#DDDDFC"/>
<path fill-rule="evenodd" clip-rule="evenodd" d="M586.996 314.987L588.308 314.348L606.341 324.552L605.252 325.194L586.996 314.987Z" fill="#E4E4F4"/>
<path fill-rule="evenodd" clip-rule="evenodd" d="M605.252 325.194L606.341 324.552V331.607L605.252 332.249V325.194Z" fill="#CECEEF"/>
<path fill-rule="evenodd" clip-rule="evenodd" d="M524.63 144.522C525.479 143.846 526.801 144.039 527.582 144.951C528.364 145.863 528.31 147.15 527.462 147.825C526.612 148.501 525.291 148.309 524.509 147.397C523.727 146.484 523.781 145.198 524.63 144.522Z" fill="#E8F0F4"/>
<path fill-rule="evenodd" clip-rule="evenodd" d="M294.615 310.113C294.615 310.113 184.217 371.74 180.594 373.76C174.265 377.29 168.583 373.209 168.583 373.209L96.6164 333.222C96.6164 333.222 94.5386 332.309 94.4943 329.978C94.4921 329.966 94.4892 329.956 94.4892 329.945V333.834C94.4892 335.521 97.0505 336.937 97.0505 336.937L169.19 377.722C169.19 377.722 174.689 381.336 181.008 377.733C184.611 375.679 294.615 313.477 294.615 313.477C294.615 313.477 297.963 311.926 297.963 309.167V306.71C297.724 308.724 294.615 310.113 294.615 310.113Z" fill="#DDDDFC"/>
<path fill-rule="evenodd" clip-rule="evenodd" d="M293.479 301.886L225.273 263.243C225.273 263.243 219.347 259.053 212.549 262.88L96.729 326.675C96.729 326.675 94.4893 327.717 94.4893 329.904C94.4893 329.929 94.4922 329.953 94.4944 329.977C94.5387 332.309 96.6164 333.222 96.6164 333.222L168.583 373.209C168.583 373.209 174.265 377.29 180.594 373.76C184.217 371.739 294.615 310.113 294.615 310.113C294.615 310.113 297.724 308.723 297.963 306.71C298.238 304.407 293.479 301.886 293.479 301.886Z" fill="#F6F6FF"/>
<path fill-rule="evenodd" clip-rule="evenodd" d="M287.109 306.96L189.117 361.511L118.864 322.444L216.254 267.384L287.109 306.96Z" fill="#076FB1"/>
<path fill-rule="evenodd" clip-rule="evenodd" d="M137.067 346.736C137.067 345.07 139.383 343.72 142.24 343.72C145.095 343.72 147.412 345.07 147.412 346.736C147.412 348.402 145.095 349.753 142.24 349.753C139.383 349.753 137.067 348.402 137.067 346.736ZM136.659 346.736C136.659 348.533 139.157 349.991 142.24 349.991C145.321 349.991 147.819 348.533 147.819 346.736C147.819 344.939 145.321 343.482 142.24 343.482C139.157 343.482 136.659 344.939 136.659 346.736Z" fill="#D8D8D8"/>
<path fill-rule="evenodd" clip-rule="evenodd" d="M324.177 196.274L324.237 197.44C324.705 205.176 328.573 248.805 356.586 256.431C379.045 262.049 385.401 253.924 386.123 252.862L389.459 187.128H323.714L324.177 196.261V196.274Z" fill="white"/>
<path fill-rule="evenodd" clip-rule="evenodd" d="M356.586 256.432C328.573 248.806 324.705 205.176 324.236 197.44L327.277 257.321C327.277 266.417 340.398 273.792 356.586 273.792C372.773 273.792 385.896 266.417 385.896 257.321L386.122 252.863C385.402 253.925 379.044 262.05 356.586 256.432Z" fill="#F6F6FF"/>
<path fill-rule="evenodd" clip-rule="evenodd" d="M356.586 267.86C341.123 267.86 328.419 261.228 326.978 252.751C326.888 253.281 326.838 253.816 326.838 254.359C326.838 263.592 340.157 271.078 356.586 271.078C373.016 271.078 386.335 263.592 386.335 254.359C386.335 253.816 386.285 253.281 386.195 252.751C384.755 261.228 372.051 267.86 356.586 267.86Z" fill="#F0F0FC"/>
<path fill-rule="evenodd" clip-rule="evenodd" d="M388.763 185.008C388.763 194.995 374.357 203.091 356.586 203.091C338.815 203.091 324.408 194.995 324.408 185.008C324.408 175.021 338.815 166.927 356.586 166.927C374.357 166.927 388.763 175.021 388.763 185.008Z" fill="white"/>
<path fill-rule="evenodd" clip-rule="evenodd" d="M356.586 208.224C339.56 208.224 325.572 200.922 323.986 191.586C323.886 192.17 323.831 192.76 323.831 193.358C323.831 203.524 338.496 211.766 356.586 211.766C374.675 211.766 389.342 203.524 389.342 193.358C389.342 192.76 389.286 192.17 389.187 191.586C387.601 200.922 373.613 208.224 356.586 208.224Z" fill="#F0F0FC"/>
<path fill-rule="evenodd" clip-rule="evenodd" d="M356.586 192.783C339.868 192.783 326.133 185.613 324.576 176.446C324.478 177.019 324.425 177.599 324.425 178.187C324.425 188.168 338.823 196.261 356.586 196.261C374.349 196.261 388.749 188.168 388.749 178.187C388.749 177.599 388.694 177.019 388.598 176.446C387.039 185.613 373.303 192.783 356.586 192.783Z" fill="#FCFCFC"/>
<path fill-rule="evenodd" clip-rule="evenodd" d="M357.237 202.725C369.718 203.851 377.338 202.093 381.975 199.725C385.024 197.786 387.378 195.497 388.825 192.977C388.974 192.593 389.024 192.367 389.024 192.367C389.024 192.367 389.06 192.386 389.127 192.418C389.989 190.739 390.462 188.965 390.462 187.128C390.462 176.614 375.295 168.092 356.586 168.092C341.577 168.092 328.855 173.58 324.408 181.178C324.392 181.707 324.084 200.145 357.237 202.725Z" fill="white"/>
<path fill-rule="evenodd" clip-rule="evenodd" d="M356.586 206.166C366.698 206.166 375.769 203.673 381.976 199.725C377.338 202.093 369.718 203.851 357.237 202.725C324.083 200.145 324.393 181.708 324.408 181.178C323.311 183.05 322.711 185.05 322.711 187.129C322.711 197.642 337.878 206.166 356.586 206.166Z" fill="#F6F6FF"/>
<path fill-rule="evenodd" clip-rule="evenodd" d="M388.594 178.455C388.594 188.389 374.264 196.443 356.586 196.443C338.908 196.443 324.577 188.389 324.577 178.455C324.577 168.52 338.908 160.467 356.586 160.467C374.264 160.467 388.594 168.52 388.594 178.455Z" fill="white"/>
<path fill-rule="evenodd" clip-rule="evenodd" d="M356.586 160.677C339.056 160.677 324.794 168.652 324.794 178.455C324.794 188.258 339.056 196.233 356.586 196.233C374.117 196.233 388.378 188.258 388.378 178.455C388.378 168.652 374.117 160.677 356.586 160.677ZM356.586 196.651C338.817 196.651 324.361 188.489 324.361 178.455C324.361 168.421 338.817 160.258 356.586 160.258C374.355 160.258 388.811 168.421 388.811 178.455C388.811 188.489 374.355 196.651 356.586 196.651Z" fill="#F7F7F7"/>
<path fill-rule="evenodd" clip-rule="evenodd" d="M354.417 189.15H361.555C361.734 189.15 361.905 189.188 362.059 189.254C362.059 189.24 362.062 189.226 362.062 189.212C362.062 188.54 361.5 187.994 360.807 187.994H353.668C352.974 187.994 352.412 188.54 352.412 189.212C352.412 189.711 352.722 190.138 353.164 190.327C353.187 189.675 353.737 189.15 354.417 189.15Z" fill="#DADEE0"/>
<path fill-rule="evenodd" clip-rule="evenodd" d="M360.806 190.431C361.486 190.431 362.036 189.907 362.059 189.255C361.905 189.189 361.734 189.151 361.555 189.151H354.417C353.738 189.151 353.187 189.675 353.165 190.328C353.319 190.393 353.489 190.431 353.668 190.431H360.806Z" fill="#E8E8E8"/>
<defs>
<linearGradient id="paint0_linear" x1="719.208" y1="820.078" x2="719.208" y2="285.962" gradientUnits="userSpaceOnUse">
<stop stop-color="white"/>
<stop offset="1" stop-color="#DDDDFF"/>
</linearGradient>
</defs>
</svg>
