<?xml version="1.0" encoding="utf-8"?>
<!-- Generator: Adobe Illustrator 19.2.1, SVG Export Plug-In . SVG Version: 6.00 Build 0)  -->
<svg version="1.1" id="Layer_1" xmlns="http://www.w3.org/2000/svg" xmlns:xlink="http://www.w3.org/1999/xlink" x="0px" y="0px"
	 viewBox="0 0 888 718" style="enable-background:new 0 0 888 718;" xml:space="preserve">
<style type="text/css">
	.st0{fill:#1C8DD6;}
	.st1{opacity:0.4978;fill:#1C8DD6;enable-background:new    ;}
	.st2{opacity:0.4987;fill:#1C8DD6;enable-background:new    ;}
	.st3{opacity:0.1397;fill:url(#SVGID_1_);enable-background:new    ;}
	.st4{fill:#076FB1;}
	.st5{fill:#DDDDFC;}
	.st6{fill:#F6F6FF;}
	.st7{fill:#B6B6DD;}
	.st8{fill:#C7C7EA;}
	.st9{fill:#FFFFFF;}
	.st10{fill:#E4E4F4;}
	.st11{fill:#CECEEF;}
	.st12{fill:#E8F0F4;}
	.st13{fill:#D8D8D8;}
	.st14{fill:#F0F0FC;}
	.st15{fill:#FCFCFC;}
	.st16{fill:#F7F7F7;}
	.st17{fill:#DADEE0;}
	.st18{fill:#E8E8E8;}
</style>
<path class="st0" d="M824,849c109.4,0,198-88.6,198-198s-88.6-198-198-198s-198,88.6-198,198S714.6,849,824,849z"/>
<path class="st0" d="M673,283c43.1,0,78-34.9,78-78s-34.9-78-78-78s-78,34.9-78,78S629.9,283,673,283z"/>
<path class="st1" d="M898,78c21.5,0,39-17.5,39-39S919.5,0,898,0s-39,17.5-39,39S876.5,78,898,78z"/>
<path class="st2" d="M50,768c27.6,0,50-22.4,50-50s-22.4-50-50-50S0,690.4,0,718S22.4,768,50,768z"/>
<linearGradient id="SVGID_1_" gradientUnits="userSpaceOnUse" x1="402.2405" y1="59.922" x2="402.2405" y2="594.038" gradientTransform="matrix(1 0 0 -1 0 880)">
	<stop  offset="0" style="stop-color:#FFFFFF"/>
	<stop  offset="1" style="stop-color:#DDDDFF"/>
</linearGradient>
<path class="st3" d="M51.1,367.1c-0.8,2.7-1.1,27.7-1.1,60.5v2.6c0,67.5,1.1,294.3,1.1,299.9c-0.1,33.3,19.7,68.4,69.5,102.6
	c72.9,50.2,127,30.4,179.5,18.4c43.6-9.9,84.7-19.8,130.9,5.9c101.7,56.7,171.7-3.2,278.7-73.9c28.5-18.8,41.9-41.1,43.4-65.1
	c0.4-6.3,1.3-79.4,1.3-145.4v-1.9c0-52.1-0.6-99.3-2.4-104.5c-20.4-58.1-99.5-48.1-190.8-97C462.9,316.4,374,286,295.1,286
	c-43.5,0-84,9.3-121.3,29.2C118,345,64.8,320.9,51.1,367.1z"/>
<path class="st4" d="M709.7,550.2c-107,70.8-175,9.6-276.7-47.1c-101.7-56.7-178.9,59.6-312.4-32.2C-13,379,68.9,281.6,173.9,225.6
	c104.9-56,234.9-27.8,387.4,54C711.2,359.9,816.7,479.4,709.7,550.2z"/>
<path class="st5" d="M291.3,386.2c0.2,3.2,4.5,5.4,4.5,5.4l196.6,109.2c0,0,5.6,3.6,12.4,0C512,497,661.8,409,661.8,409
	s6.2-2.8,6.6-7.9c0,0.2,0,0.4,0,0.7v8c0,5.4-6.6,8.5-6.6,8.5S512,501.3,504.7,505.2c-6.8,3.6-12.4,0-12.4,0L295.7,395.9
	c0,0-4.5-2.3-4.5-5.6v-3.1c0-0.1,0-0.9,0-1.6C291.3,385.9,291.3,386.2,291.3,386.2z"/>
<path class="st6" d="M295.1,379.7l163-95.6c5.9-3.2,10.1,0,10.1,0l193.6,107.8c0,0,6.6,3.6,6.6,8.7c0,0.2,0,0.4,0,0.6
	c-0.4,5.1-6.6,7.9-6.6,7.9S512,497,504.7,500.8c-6.8,3.6-12.4,0-12.4,0L295.7,391.6c0,0-4.2-2.2-4.5-5.4c0,0,0-0.3,0-0.5
	c0-0.6,0-1.4,0-1.5C291.3,381.6,295.1,379.7,295.1,379.7z"/>
<path class="st5" d="M675.9,392.5c0.2-0.1,0.3-0.2,0.5-0.3c4.3-3,3.6-9.5,3.6-9.5s0-163.8-0.4-171.8c-0.4-7.4-6.5-10.2-6.5-10.2
	L473.6,91.6c0,0-4.2-2.3-7.1-0.8c0,0-0.2,0.1-0.5,0.3c-0.1,0.1-0.3,0.2-0.5,0.3c0,0,0,0,0,0c0.8-0.5,2.4-1.3,2.9-1.6
	c0.3-0.1,0.5-0.3,0.5-0.3c2.9-1.5,8.2,1.2,8.2,1.2l199.5,109.1c0,0,6.1,2.8,6.5,10.2c0.4,8,0.4,171.8,0.4,171.8s0.7,6.5-3.6,9.5
	c-0.2,0.1-0.3,0.2-0.5,0.3c-4.6,2.7-9.1,1.9-9.1,1.9h0C672.3,393.6,674.2,393.5,675.9,392.5z"/>
<path class="st6" d="M464.7,91.8c0,0,0.4-0.3,0.9-0.5c0.2-0.1,0.3-0.2,0.5-0.3c0.3-0.1,0.5-0.3,0.5-0.3c2.9-1.5,7.1,0.8,7.1,0.8
	l199.5,109.1c0,0,6.1,2.8,6.5,10.2c0.4,8,0.4,171.8,0.4,171.8s0.7,6.5-3.6,9.5c-0.2,0.1-0.3,0.2-0.5,0.3c-1.7,1-3.7,1.1-5.5,0.9
	c-3.1-0.4-5.7-1.8-5.7-1.8L468.1,281.7c0,0-5-1.8-5.3-8.3l-0.1-176.2C462.7,97.3,462.4,93.1,464.7,91.8z"/>
<path class="st5" d="M613.9,396.5l0-0.2C613.8,396.4,613.9,396.4,613.9,396.5z"/>
<path class="st5" d="M613.8,396.3L613.8,396.3C613.8,396.3,613.8,396.3,613.8,396.3L613.8,396.3z"/>
<path class="st5" d="M640.2,398l-10,5.5c-1.8,1-3,0.9-4.5,0.1l-10.8-5.9c-0.6-0.4-0.9-0.8-1-1.2l0.1,0.9c0.1,0.4,0.5,0.8,0.9,1.1
	l10.8,5.9c1.5,0.8,2.7,0.9,4.5-0.1l10-5.5c0.6-0.3,1.2-0.6,1.3-1.3l0.1-1.3h0C641.6,396.9,641.1,397.5,640.2,398z"/>
<path class="st5" d="M594,385.5l0-0.2C594,385.4,594,385.4,594,385.5z"/>
<path class="st5" d="M594,385.3L594,385.3L594,385.3L594,385.3z"/>
<path class="st5" d="M620.4,387l-10,5.5c-1.8,1-3,0.9-4.5,0.1l-10.8-5.9c-0.6-0.4-0.9-0.8-1-1.2l0.1,0.9c0.1,0.4,0.5,0.8,0.9,1.1
	l10.8,5.9c1.5,0.8,2.7,0.9,4.5-0.1l10-5.5c0.6-0.3,1.2-0.6,1.3-1.3l0.1-1.3l0,0C621.8,385.9,621.3,386.5,620.4,387z"/>
<path class="st5" d="M600.8,375.8l-10,5.5c-1.8,1-3,0.9-4.5,0.1l-10.8-5.9c-0.6-0.4-0.9-0.8-1-1.2l0.1,0.9c0.1,0.4,0.5,0.8,0.9,1.1
	l10.8,5.9c1.5,0.8,2.7,0.9,4.5-0.1l10-5.5c0.6-0.3,1.2-0.6,1.3-1.3l0.1-1.3h0C602.2,374.7,601.7,375.4,600.8,375.8z"/>
<path class="st5" d="M555.3,362.8l0-0.2C555.2,362.6,555.3,362.7,555.3,362.8z"/>
<path class="st5" d="M555.2,362.5L555.2,362.5L555.2,362.5L555.2,362.5z"/>
<path class="st5" d="M581.7,364.3l-10,5.5c-1.8,1-3,0.9-4.5,0.1l-10.8-5.9c-0.6-0.4-0.9-0.8-1-1.2l0.1,0.9c0.1,0.4,0.5,0.8,0.9,1.1
	l10.8,5.9c1.5,0.8,2.7,0.9,4.5-0.1l10-5.5c0.6-0.3,1.2-0.6,1.3-1.3l0.1-1.3h0C583,363.2,582.5,363.8,581.7,364.3z"/>
<path class="st5" d="M535.4,351.8l0-0.2C535.4,351.6,535.4,351.7,535.4,351.8z"/>
<path class="st5" d="M535.4,351.5L535.4,351.5L535.4,351.5L535.4,351.5z"/>
<path class="st5" d="M561.8,353.3l-10,5.5c-1.8,1-3,0.9-4.5,0.1l-10.8-5.9c-0.6-0.4-0.9-0.8-1-1.2l0.1,0.9c0.1,0.4,0.5,0.8,0.9,1.1
	l10.8,5.9c1.5,0.8,2.7,0.9,4.5-0.1l10-5.5c0.6-0.3,1.2-0.6,1.3-1.3l0.1-1.3l0,0C563.2,352.2,562.7,352.8,561.8,353.3z"/>
<path class="st5" d="M542.2,342.1l-10,5.5c-1.8,1-3,0.9-4.5,0.1l-10.8-5.9c-0.6-0.4-0.9-0.8-1-1.2l0.1,0.9c0.1,0.4,0.5,0.8,0.9,1.1
	l10.8,5.9c1.5,0.8,2.7,0.9,4.5-0.1l10-5.5c0.6-0.3,1.2-0.6,1.3-1.3l0.1-1.3h0C543.6,341,543.1,341.6,542.2,342.1z"/>
<path class="st5" d="M496.2,329.4L496.2,329.4C496.2,329.4,496.2,329.4,496.2,329.4L496.2,329.4z"/>
<path class="st5" d="M522.6,331.1l-10,5.5c-1.8,1-3,0.9-4.5,0.1l-10.8-5.9c-0.6-0.4-0.9-0.8-1-1.2l0.1,0.9c0.1,0.4,0.5,0.8,0.9,1.1
	l10.8,5.9c1.5,0.8,2.7,0.9,4.5-0.1l10-5.5c0.6-0.3,1.2-0.6,1.3-1.3l0.1-1.3h0C524,330,523.5,330.6,522.6,331.1z"/>
<path class="st5" d="M476.4,318.6l0-0.2C476.4,318.4,476.4,318.5,476.4,318.6z"/>
<path class="st5" d="M476.4,318.4L476.4,318.4L476.4,318.4L476.4,318.4z"/>
<path class="st5" d="M502.8,320.1l-10,5.5c-1.8,1-3,0.9-4.5,0.1l-10.8-5.9c-0.6-0.4-0.9-0.8-1-1.2l0.1,0.9c0.1,0.4,0.5,0.8,0.9,1.1
	l10.8,5.9c1.5,0.8,2.7,0.9,4.5-0.1l10-5.5c0.6-0.3,1.2-0.6,1.3-1.3l0.1-1.3l0,0C504.1,319,503.6,319.6,502.8,320.1z"/>
<path class="st5" d="M483.2,308.9l-10,5.5c-1.8,1-3,0.9-4.5,0.1l-10.8-5.9c-0.6-0.4-0.9-0.8-1-1.2l0.1,0.9c0.1,0.4,0.5,0.8,0.9,1.1
	l10.8,5.9c1.5,0.8,2.7,0.9,4.5-0.1l10-5.5c0.6-0.3,1.2-0.6,1.3-1.3l0.1-1.3h0C484.5,307.8,484,308.5,483.2,308.9z"/>
<path class="st5" d="M594.4,407.7l0-0.2C594.3,407.5,594.3,407.6,594.4,407.7z"/>
<path class="st5" d="M594.3,407.4L594.3,407.4C594.3,407.5,594.3,407.4,594.3,407.4L594.3,407.4z"/>
<path class="st5" d="M574.5,396.7l0-0.2C574.5,396.5,574.5,396.6,574.5,396.7z"/>
<path class="st5" d="M574.5,396.4L574.5,396.4C574.5,396.4,574.5,396.4,574.5,396.4L574.5,396.4z"/>
<path class="st5" d="M600.9,398.2l-10,5.5c-1.8,1-3,0.9-4.5,0.1l-10.8-5.9c-0.6-0.4-0.9-0.8-1-1.2l0.1,0.9c0.1,0.4,0.5,0.8,0.9,1.1
	l10.8,5.9c1.5,0.8,2.7,0.9,4.5-0.1l10-5.5c0.6-0.3,1.2-0.6,1.3-1.3l0.1-1.3l0,0C602.3,397.1,601.8,397.7,600.9,398.2z"/>
<path class="st5" d="M581.3,387l-10,5.5c-1.8,1-3,0.9-4.5,0.1l-10.8-5.9c-0.6-0.4-0.9-0.8-1-1.2l0.1,0.9c0.1,0.4,0.5,0.8,0.9,1.1
	l10.8,5.9c1.5,0.8,2.7,0.9,4.5-0.1l10-5.5c0.6-0.3,1.2-0.6,1.3-1.3l0.1-1.3h0C582.6,385.9,582.1,386.5,581.3,387z"/>
<path class="st5" d="M535.8,374l0-0.2C535.7,373.8,535.7,373.9,535.8,374z"/>
<path class="st5" d="M535.7,373.7L535.7,373.7C535.7,373.7,535.7,373.7,535.7,373.7L535.7,373.7z"/>
<path class="st5" d="M562.1,375.4l-10,5.5c-1.8,1-3,0.9-4.5,0.1l-10.8-5.9c-0.6-0.4-0.9-0.8-1-1.2l0.1,0.9c0.1,0.4,0.5,0.8,0.9,1.1
	l10.8,5.9c1.5,0.8,2.7,0.9,4.5-0.1l10-5.5c0.6-0.3,1.2-0.6,1.3-1.3l0.1-1.3h0C563.5,374.3,563,375,562.1,375.4z"/>
<path class="st5" d="M515.9,362.9l0-0.2C515.9,362.8,515.9,362.9,515.9,362.9z"/>
<path class="st5" d="M515.9,362.7L515.9,362.7C515.9,362.7,515.9,362.7,515.9,362.7L515.9,362.7z"/>
<path class="st5" d="M542.3,364.4l-10,5.5c-1.8,1-3,0.9-4.5,0.1l-10.8-5.9c-0.6-0.4-0.9-0.8-1-1.2l0.1,0.9c0.1,0.4,0.5,0.8,0.9,1.1
	l10.8,5.9c1.5,0.8,2.7,0.9,4.5-0.1l10-5.5c0.6-0.3,1.2-0.6,1.3-1.3l0.1-1.3h0C543.7,363.3,543.2,364,542.3,364.4z"/>
<path class="st5" d="M522.7,353.3l-10,5.5c-1.8,1-3,0.9-4.5,0.1l-10.8-5.9c-0.6-0.4-0.9-0.8-1-1.2l0.1,0.9c0.1,0.4,0.5,0.8,0.9,1.1
	l10.8,5.9c1.5,0.8,2.7,0.9,4.5-0.1l10-5.5c0.6-0.3,1.2-0.6,1.3-1.3l0.1-1.3h0C524,352.2,523.5,352.8,522.7,353.3z"/>
<path class="st5" d="M476.7,340.8l0-0.2C476.7,340.6,476.7,340.7,476.7,340.8z"/>
<path class="st5" d="M476.7,340.5L476.7,340.5C476.7,340.5,476.7,340.5,476.7,340.5L476.7,340.5z"/>
<path class="st5" d="M503.1,342.3l-10,5.5c-1.8,1-3,0.9-4.5,0.1l-10.8-5.9c-0.6-0.4-0.9-0.8-1-1.2l0.1,0.9c0.1,0.4,0.5,0.8,0.9,1.1
	l10.8,5.9c1.5,0.8,2.7,0.9,4.5-0.1l10-5.5c0.6-0.3,1.2-0.6,1.3-1.3l0.1-1.3h0C504.5,341.1,504,341.8,503.1,342.3z"/>
<path class="st5" d="M456.9,329.8l0-0.2C456.9,329.6,456.9,329.7,456.9,329.8z"/>
<path class="st5" d="M456.9,329.5L456.9,329.5L456.9,329.5L456.9,329.5z"/>
<path class="st5" d="M483.3,331.3l-10,5.5c-1.8,1-3,0.9-4.5,0.1l-10.8-5.9c-0.6-0.4-0.9-0.8-1-1.2l0.1,0.9c0.1,0.4,0.5,0.8,0.9,1.1
	l10.8,5.9c1.5,0.8,2.7,0.9,4.5-0.1l10-5.5c0.6-0.3,1.2-0.6,1.3-1.3l0.1-1.3l0,0C484.6,330.1,484.1,330.8,483.3,331.3z"/>
<path class="st5" d="M573.3,418.9l0-0.2C573.2,418.7,573.3,418.8,573.3,418.9z"/>
<path class="st5" d="M573.2,418.6L573.2,418.6C573.2,418.6,573.2,418.6,573.2,418.6L573.2,418.6z"/>
<path class="st5" d="M553.4,407.9l0-0.2C553.4,407.7,553.4,407.8,553.4,407.9z"/>
<path class="st5" d="M553.4,407.6L553.4,407.6L553.4,407.6L553.4,407.6z"/>
<path class="st5" d="M579.8,409.3l-10,5.5c-1.8,1-3,0.9-4.5,0.1l-10.8-5.9c-0.6-0.4-0.9-0.8-1-1.2l0.1,0.9c0.1,0.4,0.5,0.8,0.9,1.1
	l10.8,5.9c1.5,0.8,2.7,0.9,4.5-0.1l10-5.5c0.6-0.3,1.2-0.6,1.3-1.3l0.1-1.3l0,0C581.2,408.2,580.7,408.9,579.8,409.3z"/>
<path class="st5" d="M560.2,398.2l-10,5.5c-1.8,1-3,0.9-4.5,0.1l-10.8-5.9c-0.6-0.4-0.9-0.8-1-1.2l0.1,0.9c0.1,0.4,0.5,0.8,0.9,1.1
	l10.8,5.9c1.5,0.8,2.7,0.9,4.5-0.1l10-5.5c0.6-0.3,1.2-0.6,1.3-1.3l0.1-1.3h0C561.6,397.1,561.1,397.7,560.2,398.2z"/>
<path class="st5" d="M514.7,385.1l0-0.2C514.7,385,514.7,385,514.7,385.1z"/>
<path class="st5" d="M514.6,384.9L514.6,384.9C514.6,384.9,514.6,384.9,514.6,384.9L514.6,384.9z"/>
<path class="st5" d="M541.1,386.6l-10,5.5c-1.8,1-3,0.9-4.5,0.1l-10.8-5.9c-0.6-0.4-0.9-0.8-1-1.2l0.1,0.9c0.1,0.4,0.5,0.8,0.9,1.1
	l10.8,5.9c1.5,0.8,2.7,0.9,4.5-0.1l10-5.5c0.6-0.3,1.2-0.6,1.3-1.3l0.1-1.3h0C542.4,385.5,541.9,386.1,541.1,386.6z"/>
<path class="st5" d="M494.8,374.1l0-0.2C494.8,374,494.8,374,494.8,374.1z"/>
<path class="st5" d="M494.8,373.9L494.8,373.9L494.8,373.9L494.8,373.9z"/>
<path class="st5" d="M521.2,375.6l-10,5.5c-1.8,1-3,0.9-4.5,0.1l-10.8-5.9c-0.6-0.4-0.9-0.8-1-1.2l0.1,0.9c0.1,0.4,0.5,0.8,0.9,1.1
	l10.8,5.9c1.5,0.8,2.7,0.9,4.5-0.1l10-5.5c0.6-0.3,1.2-0.6,1.3-1.3l0.1-1.3l0,0C522.6,374.5,522.1,375.1,521.2,375.6z"/>
<path class="st5" d="M501.6,364.4l-10,5.5c-1.8,1-3,0.9-4.5,0.1l-10.8-5.9c-0.6-0.4-0.9-0.8-1-1.2l0.1,0.9c0.1,0.4,0.5,0.8,0.9,1.1
	l10.8,5.9c1.5,0.8,2.7,0.9,4.5-0.1l10-5.5c0.6-0.3,1.2-0.6,1.3-1.3l0.1-1.3h0C503,363.3,502.5,364,501.6,364.4z"/>
<path class="st5" d="M455.7,351.9l0-0.2C455.6,351.8,455.6,351.9,455.7,351.9z"/>
<path class="st5" d="M455.6,351.7L455.6,351.7C455.6,351.7,455.6,351.7,455.6,351.7L455.6,351.7z"/>
<path class="st5" d="M482,353.4l-10,5.5c-1.8,1-3,0.9-4.5,0.1l-10.8-5.9c-0.6-0.4-0.9-0.8-1-1.2l0.1,0.9c0.1,0.4,0.5,0.8,0.9,1.1
	l10.8,5.9c1.5,0.8,2.7,0.9,4.5-0.1l10-5.5c0.6-0.3,1.2-0.6,1.3-1.3l0.1-1.3h0C483.4,352.3,482.9,353,482,353.4z"/>
<path class="st5" d="M435.8,340.9l0-0.2C435.8,340.8,435.8,340.9,435.8,340.9z"/>
<path class="st5" d="M435.8,340.7L435.8,340.7L435.8,340.7L435.8,340.7z"/>
<path class="st5" d="M462.2,342.4l-10,5.5c-1.8,1-3,0.9-4.5,0.1l-10.8-5.9c-0.6-0.4-0.9-0.8-1-1.2l0.1,0.9c0.1,0.4,0.5,0.8,0.9,1.1
	l10.8,5.9c1.5,0.8,2.7,0.9,4.5-0.1l10-5.5c0.6-0.3,1.2-0.6,1.3-1.3l0.1-1.3l0,0C463.6,341.3,463,341.9,462.2,342.4z"/>
<path class="st5" d="M463.7,320.3l-10,5.5c-1.8,1-3,0.9-4.5,0.1l-10.8-5.9c-0.6-0.4-0.9-0.8-1-1.2l0.1,0.9c0.1,0.4,0.5,0.8,0.9,1.1
	l10.8,5.9c1.5,0.8,2.7,0.9,4.5-0.1l10-5.5c0.6-0.3,1.2-0.6,1.3-1.3l0.1-1.3l0,0C465,319.2,464.5,319.8,463.7,320.3z"/>
<path class="st5" d="M442.6,331.4l-10,5.5c-1.8,1-3,0.9-4.5,0.1l-10.8-5.9c-0.6-0.4-0.9-0.8-1-1.2l0.1,0.9c0.1,0.4,0.5,0.8,0.9,1.1
	l10.8,5.9c1.5,0.8,2.7,0.9,4.5-0.1l10-5.5c0.6-0.3,1.2-0.6,1.3-1.3l0.1-1.3l0,0C443.9,330.3,443.4,331,442.6,331.4z"/>
<path class="st5" d="M620.5,409.3l-31.1,16.6c-1.8,1-3,0.9-4.5,0.1l-10.8-5.9c-0.6-0.4-0.9-0.8-1-1.2l0.1,0.9
	c0.1,0.4,0.5,0.8,0.9,1.1l10.8,5.9c1.5,0.8,2.7,0.9,4.5-0.1l31.1-16.6c0.6-0.3,1.2-0.6,1.3-1.3l0.1-1.3h0
	C621.8,408.1,621.3,408.8,620.5,409.3z"/>
<path class="st5" d="M553.8,430l0-0.2C553.7,429.9,553.7,429.9,553.8,430z"/>
<path class="st5" d="M553.7,429.8L553.7,429.8C553.7,429.8,553.7,429.8,553.7,429.8L553.7,429.8z"/>
<path class="st5" d="M580.1,431.5l-10,5.5c-1.8,1-3,0.9-4.5,0.1l-10.8-5.9c-0.6-0.4-0.9-0.8-1-1.2l0.1,0.9c0.1,0.4,0.5,0.8,0.9,1.1
	l10.8,5.9c1.5,0.8,2.7,0.9,4.5-0.1l10-5.5c0.6-0.3,1.2-0.6,1.3-1.3l0.1-1.3h0C581.5,430.4,581,431,580.1,431.5z"/>
<path class="st5" d="M533.9,419l0-0.2C533.9,418.9,533.9,418.9,533.9,419z"/>
<path class="st5" d="M533.9,418.8L533.9,418.8C533.9,418.8,533.9,418.8,533.9,418.8L533.9,418.8z"/>
<path class="st5" d="M560.3,420.5l-10,5.5c-1.8,1-3,0.9-4.5,0.1l-10.8-5.9c-0.6-0.4-0.9-0.8-1-1.2l0.1,0.9c0.1,0.4,0.5,0.8,0.9,1.1
	l10.8,5.9c1.5,0.8,2.7,0.9,4.5-0.1l10-5.5c0.6-0.3,1.2-0.6,1.3-1.3l0.1-1.3l0,0C561.7,419.4,561.2,420,560.3,420.5z"/>
<path class="st5" d="M540.7,409.3l-10,5.5c-1.8,1-3,0.9-4.5,0.1l-10.8-5.9c-0.6-0.4-0.9-0.8-1-1.2l0.1,0.9c0.1,0.4,0.5,0.8,0.9,1.1
	l10.8,5.9c1.5,0.8,2.7,0.9,4.5-0.1l10-5.5c0.6-0.3,1.2-0.6,1.3-1.3l0.1-1.3h0C542,408.2,541.5,408.9,540.7,409.3z"/>
<path class="st5" d="M495.2,396.3l0-0.2C495.1,396.1,495.1,396.2,495.2,396.3z"/>
<path class="st5" d="M495.1,396L495.1,396C495.1,396,495.1,396,495.1,396L495.1,396z"/>
<path class="st5" d="M521.5,397.8l-10,5.5c-1.8,1-3,0.9-4.5,0.1l-10.8-5.9c-0.6-0.4-0.9-0.8-1-1.2l0.1,0.9c0.1,0.4,0.5,0.8,0.9,1.1
	l10.8,5.9c1.5,0.8,2.7,0.9,4.5-0.1l10-5.5c0.6-0.3,1.2-0.6,1.3-1.3l0.1-1.3h0C522.9,396.7,522.4,397.3,521.5,397.8z"/>
<path class="st5" d="M475.3,385.3l0-0.2C475.3,385.1,475.3,385.2,475.3,385.3z"/>
<path class="st5" d="M475.3,385L475.3,385L475.3,385L475.3,385z"/>
<path class="st5" d="M501.7,386.8l-10,5.5c-1.8,1-3,0.9-4.5,0.1l-10.8-5.9c-0.6-0.4-0.9-0.8-1-1.2l0.1,0.9c0.1,0.4,0.5,0.8,0.9,1.1
	l10.8,5.9c1.5,0.8,2.7,0.9,4.5-0.1l10-5.5c0.6-0.3,1.2-0.6,1.3-1.3l0.1-1.3l0,0C503.1,385.6,502.6,386.3,501.7,386.8z"/>
<path class="st5" d="M482.1,375.6l-10,5.5c-1.8,1-3,0.9-4.5,0.1l-10.8-5.9c-0.6-0.4-0.9-0.8-1-1.2l0.1,0.9c0.1,0.4,0.5,0.8,0.9,1.1
	l10.8,5.9c1.5,0.8,2.7,0.9,4.5-0.1l10-5.5c0.6-0.3,1.2-0.6,1.3-1.3l0.1-1.3h0C483.4,374.5,482.9,375.1,482.1,375.6z"/>
<path class="st5" d="M436.1,363.1l0-0.2C436.1,363,436.1,363,436.1,363.1z"/>
<path class="st5" d="M436.1,362.9L436.1,362.9C436.1,362.9,436.1,362.9,436.1,362.9L436.1,362.9z"/>
<path class="st5" d="M462.5,364.6l-10,5.5c-1.8,1-3,0.9-4.5,0.1l-10.8-5.9c-0.6-0.4-0.9-0.8-1-1.2l0.1,0.9c0.1,0.4,0.5,0.8,0.9,1.1
	L448,371c1.5,0.8,2.7,0.9,4.5-0.1l10-5.5c0.6-0.3,1.2-0.6,1.3-1.3l0.1-1.3h0C463.9,363.5,463.4,364.1,462.5,364.6z"/>
<path class="st5" d="M416.3,352.1l0-0.2C416.3,351.9,416.3,352,416.3,352.1z"/>
<path class="st5" d="M416.3,351.9L416.3,351.9L416.3,351.9L416.3,351.9z"/>
<path class="st5" d="M442.7,353.6l-10,5.5c-1.8,1-3,0.9-4.5,0.1l-10.8-5.9c-0.6-0.4-0.9-0.8-1-1.2l0.1,0.9c0.1,0.4,0.5,0.8,0.9,1.1
	l10.8,5.9c1.5,0.8,2.7,0.9,4.5-0.1l10-5.5c0.6-0.3,1.2-0.6,1.3-1.3l0.1-1.3h0C444,352.5,443.5,353.1,442.7,353.6z"/>
<path class="st5" d="M423.1,342.4l-10,5.5c-1.8,1-3,0.9-4.5,0.1l-10.8-5.9c-0.6-0.4-0.9-0.8-1-1.2l0.1,0.9c0.1,0.4,0.5,0.8,0.9,1.1
	l10.8,5.9c1.5,0.8,2.7,0.9,4.5-0.1l10-5.5c0.6-0.3,1.2-0.6,1.3-1.3l0.1-1.3h0C424.4,341.3,423.9,341.9,423.1,342.4z"/>
<path class="st5" d="M532.7,441.2l0-0.2C532.7,441,532.7,441.1,532.7,441.2z"/>
<path class="st5" d="M532.7,440.9L532.7,440.9L532.7,440.9L532.7,440.9z"/>
<path class="st5" d="M559.1,442.7l-10,5.5c-1.8,1-3,0.9-4.5,0.1l-10.8-5.9c-0.6-0.4-0.9-0.8-1-1.2l0.1,0.9c0.1,0.4,0.5,0.8,0.9,1.1
	l10.8,5.9c1.5,0.8,2.7,0.9,4.5-0.1l10-5.5c0.6-0.3,1.2-0.6,1.3-1.3l0.1-1.3h0C560.4,441.6,559.9,442.2,559.1,442.7z"/>
<path class="st5" d="M512.8,430.2l0-0.2C512.8,430,512.8,430.1,512.8,430.2z"/>
<path class="st5" d="M512.8,429.9L512.8,429.9C512.8,429.9,512.8,429.9,512.8,429.9L512.8,429.9z"/>
<path class="st5" d="M539.2,431.7l-10,5.5c-1.8,1-3,0.9-4.5,0.1l-10.8-5.9c-0.6-0.4-0.9-0.8-1-1.2l0.1,0.9c0.1,0.4,0.5,0.8,0.9,1.1
	l10.8,5.9c1.5,0.8,2.7,0.9,4.5-0.1l10.1-5.5c0.6-0.3,1.2-0.6,1.3-1.3l0.1-1.3l0,0C540.6,430.6,540.1,431.2,539.2,431.7z"/>
<path class="st5" d="M519.6,420.5l-10,5.5c-1.8,1-3,0.9-4.5,0.1l-89-50.6c-0.6-0.4-0.9-0.8-1-1.2l0.1,0.9c0.1,0.4,0.5,0.8,0.9,1.1
	l89,50.6c1.5,0.8,2.7,0.9,4.5-0.1l10-5.5c0.6-0.3,1.2-0.6,1.3-1.3l0.1-1.3h0C521,419.4,520.5,420,519.6,420.5z"/>
<path class="st5" d="M474.1,407.4l0-0.2C474.1,407.3,474.1,407.4,474.1,407.4z"/>
<path class="st5" d="M474.1,407.2L474.1,407.2C474.1,407.2,474.1,407.2,474.1,407.2L474.1,407.2z"/>
<path class="st5" d="M454.3,396.4l0-0.2C454.2,396.3,454.2,396.4,454.3,396.4z"/>
<path class="st5" d="M454.2,396.2L454.2,396.2L454.2,396.2L454.2,396.2z"/>
<path class="st5" d="M415.1,374.3l0-0.2C415,374.1,415,374.2,415.1,374.3z"/>
<path class="st5" d="M415,374L415,374C415,374,415,374,415,374L415,374z"/>
<path class="st5" d="M395.2,363.3l0-0.2C395.2,363.1,395.2,363.2,395.2,363.3z"/>
<path class="st5" d="M395.2,363L395.2,363L395.2,363L395.2,363z"/>
<path class="st5" d="M421.6,364.8l-10,5.5c-1.8,1-3,0.9-4.5,0.1l-10.8-5.9c-0.6-0.4-0.9-0.8-1-1.2l0.1,0.9c0.1,0.4,0.5,0.8,0.9,1.1
	l10.8,5.9c1.5,0.8,2.7,0.9,4.5-0.1l10-5.5c0.6-0.3,1.2-0.6,1.3-1.3l0.1-1.3h0C423,363.6,422.5,364.3,421.6,364.8z"/>
<path class="st5" d="M402,353.6l-10,5.5c-1.8,1-3,0.9-4.5,0.1l-10.8-5.9c-0.6-0.4-0.9-0.8-1-1.2l0.1,0.9c0.1,0.4,0.5,0.8,0.9,1.1
	l10.8,5.9c1.5,0.8,2.7,0.9,4.5-0.1l10-5.5c0.6-0.3,1.2-0.6,1.3-1.3l0.1-1.3h0C403.3,352.5,402.8,353.1,402,353.6z"/>
<path class="st4" d="M465.8,102.3l0.1,167c0.2,6.1,5,7.8,5,7.8l191.6,107.6c0,0,2.5,1.4,5.4,1.7c1.7,0.2,3.6,0.1,5.2-0.9
	c0.2-0.1,0.3-0.2,0.5-0.3c3.4-2.6,3.4-9.1,3.4-9.1V213.5c-0.3-7-6.5-9.6-6.5-9.6L472.9,95.1c0,0-3.8-2.1-5.5-0.2
	C465.6,96.8,465.8,98,465.8,102.3z"/>
<path class="st7" d="M645.9,423.4l6.9-3.9c1.1-0.6,1.7-2.1,1.1-3.1c0.7,0.1,1.3,0.4,1.7,1c0.6,1,0,2.6-1.1,3.2l-6.9,3.9
	c-0.6,0.4-1.4,0.4-2,0.1c-0.5-0.2-0.9-0.5-1.1-0.9c0,0,0,0,0-0.1C644.9,423.7,645.4,423.7,645.9,423.4z"/>
<path class="st8" d="M645.5,420.6l6.9-3.9c0.4-0.2,0.8-0.3,1.2-0.3c0.1,0,0.2,0,0.3,0c0.6,1,0,2.5-1.1,3.1l-6.9,3.9
	c-0.5,0.3-1,0.3-1.5,0.3C643.8,422.6,644.5,421.2,645.5,420.6z"/>
<path class="st9" d="M518.5,136.2v159.1l104.3,57.4V193.7L518.5,136.2z"/>
<path class="st5" d="M518.5,147.9l104.3,57.4v57.7l-104.3-57.4V147.9z"/>
<path class="st5" d="M531,245.2v15.3l20.7,11.3v-15.1L531,245.2z"/>
<path class="st5" d="M543.3,228.6v4.5l53.3,29.7v-4.3L543.3,228.6z"/>
<path class="st5" d="M552.3,241.4v3.8l35.5,19.5v-3.5L552.3,241.4z"/>
<path class="st5" d="M531,262.8v2l20.7,11.3v-1.8L531,262.8z"/>
<path class="st5" d="M531,267.5v2l16.5,9.1v-1.8L531,267.5z"/>
<path class="st5" d="M559,260.7V276l20.7,11.3v-15.1L559,260.7z"/>
<path class="st5" d="M559,278.3v2l20.7,11.3v-1.8L559,278.3z"/>
<path class="st5" d="M559,282.7v2l16.5,9.1V292L559,282.7z"/>
<path class="st5" d="M586.9,276.2v15.3l20.7,11.3v-15.1L586.9,276.2z"/>
<path class="st5" d="M587,315v7.3l18.3,10v-7.1L587,315z"/>
<path class="st5" d="M586.9,293.8v2l20.7,11.3v-1.8L586.9,293.8z"/>
<path class="st5" d="M587,298.2v2l16.5,9.1v-1.8L587,298.2z"/>
<path class="st10" d="M587,315l1.3-0.6l18,10.2l-1.1,0.6L587,315z"/>
<path class="st11" d="M605.3,325.2l1.1-0.6v7.1l-1.1,0.6V325.2z"/>
<path class="st12" d="M524.6,144.5c0.8-0.7,2.2-0.5,3,0.4c0.8,0.9,0.7,2.2-0.1,2.9c-0.8,0.7-2.2,0.5-3-0.4
	C523.7,146.5,523.8,145.2,524.6,144.5z"/>
<path class="st5" d="M294.6,310.1c0,0-110.4,61.6-114,63.6c-6.3,3.5-12-0.6-12-0.6l-72-40c0,0-2.1-0.9-2.1-3.2c0,0,0,0,0,0v3.9
	c0,1.7,2.6,3.1,2.6,3.1l72.1,40.8c0,0,5.5,3.6,11.8,0c3.6-2.1,113.6-64.3,113.6-64.3s3.3-1.6,3.3-4.3v-2.5
	C297.7,308.7,294.6,310.1,294.6,310.1z"/>
<path class="st6" d="M293.5,301.9l-68.2-38.6c0,0-5.9-4.2-12.7-0.4L96.7,326.7c0,0-2.2,1-2.2,3.2c0,0,0,0,0,0.1
	c0,2.3,2.1,3.2,2.1,3.2l72,40c0,0,5.7,4.1,12,0.6c3.6-2,114-63.6,114-63.6s3.1-1.4,3.3-3.4C298.2,304.4,293.5,301.9,293.5,301.9z"/>
<path class="st4" d="M287.1,307l-98,54.6l-70.3-39.1l97.4-55.1L287.1,307z"/>
<path class="st13" d="M137.1,346.7c0-1.7,2.3-3,5.2-3c2.9,0,5.2,1.4,5.2,3c0,1.7-2.3,3-5.2,3C139.4,349.8,137.1,348.4,137.1,346.7z
	 M136.7,346.7c0,1.8,2.5,3.3,5.6,3.3c3.1,0,5.6-1.5,5.6-3.3s-2.5-3.3-5.6-3.3C139.2,343.5,136.7,344.9,136.7,346.7z"/>
<path class="st9" d="M324.2,196.3l0.1,1.2c0.5,7.7,4.3,51.4,32.3,59c22.5,5.6,28.8-2.5,29.5-3.6l3.3-65.7h-65.7L324.2,196.3
	L324.2,196.3z"/>
<path class="st6" d="M356.6,256.4c-28-7.6-31.9-51.3-32.4-59l3,59.9c0,9.1,13.1,16.5,29.3,16.5c16.2,0,29.3-7.4,29.3-16.5l0.2-4.5
	C385.4,253.9,379,262,356.6,256.4z"/>
<path class="st14" d="M356.6,267.9c-15.5,0-28.2-6.6-29.6-15.1c-0.1,0.5-0.1,1.1-0.1,1.6c0,9.2,13.3,16.7,29.7,16.7
	c16.4,0,29.7-7.5,29.7-16.7c0-0.5,0-1.1-0.1-1.6C384.8,261.2,372.1,267.9,356.6,267.9z"/>
<path class="st9" d="M388.8,185c0,10-14.4,18.1-32.2,18.1s-32.2-8.1-32.2-18.1s14.4-18.1,32.2-18.1S388.8,175,388.8,185z"/>
<path class="st14" d="M356.6,208.2c-17,0-31-7.3-32.6-16.6c-0.1,0.6-0.2,1.2-0.2,1.8c0,10.2,14.7,18.4,32.8,18.4
	c18.1,0,32.8-8.2,32.8-18.4c0-0.6-0.1-1.2-0.2-1.8C387.6,200.9,373.6,208.2,356.6,208.2z"/>
<path class="st15" d="M356.6,192.8c-16.7,0-30.5-7.2-32-16.3c-0.1,0.6-0.2,1.2-0.2,1.7c0,10,14.4,18.1,32.2,18.1s32.2-8.1,32.2-18.1
	c0-0.6-0.1-1.2-0.2-1.7C387,185.6,373.3,192.8,356.6,192.8z"/>
<path class="st9" d="M357.2,202.7c12.5,1.1,20.1-0.6,24.7-3c3-1.9,5.4-4.2,6.9-6.7c0.1-0.4,0.2-0.6,0.2-0.6s0,0,0.1,0.1
	c0.9-1.7,1.3-3.5,1.3-5.3c0-10.5-15.2-19-33.9-19c-15,0-27.7,5.5-32.2,13.1C324.4,181.7,324.1,200.1,357.2,202.7z"/>
<path class="st6" d="M356.6,206.2c10.1,0,19.2-2.5,25.4-6.4c-4.6,2.4-12.3,4.1-24.7,3c-33.2-2.6-32.8-21-32.8-21.5
	c-1.1,1.9-1.7,3.9-1.7,6C322.7,197.6,337.9,206.2,356.6,206.2z"/>
<path class="st9" d="M388.6,178.5c0,9.9-14.3,18-32,18s-32-8.1-32-18c0-9.9,14.3-18,32-18S388.6,168.5,388.6,178.5z"/>
<path class="st16" d="M356.6,160.7c-17.5,0-31.8,8-31.8,17.8c0,9.8,14.3,17.8,31.8,17.8c17.5,0,31.8-8,31.8-17.8
	C388.4,168.7,374.1,160.7,356.6,160.7z M356.6,196.7c-17.8,0-32.2-8.2-32.2-18.2s14.5-18.2,32.2-18.2s32.2,8.2,32.2,18.2
	S374.4,196.7,356.6,196.7z"/>
<path class="st17" d="M354.4,189.1h7.1c0.2,0,0.4,0,0.5,0.1c0,0,0,0,0,0c0-0.7-0.6-1.2-1.3-1.2h-7.1c-0.7,0-1.3,0.5-1.3,1.2
	c0,0.5,0.3,0.9,0.8,1.1C353.2,189.7,353.7,189.1,354.4,189.1z"/>
<path class="st18" d="M360.8,190.4c0.7,0,1.2-0.5,1.3-1.2c-0.2-0.1-0.3-0.1-0.5-0.1h-7.1c-0.7,0-1.2,0.5-1.3,1.2
	c0.2,0.1,0.3,0.1,0.5,0.1H360.8z"/>
</svg>
