<?xml version="1.0" encoding="utf-8"?>
<!-- Generator: Adobe Illustrator 19.2.1, SVG Export Plug-In . SVG Version: 6.00 Build 0)  -->
<svg version="1.1" id="Layer_1" xmlns="http://www.w3.org/2000/svg" xmlns:xlink="http://www.w3.org/1999/xlink" x="0px" y="0px"
	 viewBox="0 0 755 629" style="enable-background:new 0 0 755 629;" xml:space="preserve">
<style type="text/css">
	.st0{fill:#1C8DD6;}
	.st1{opacity:0.4987;fill:#1C8DD6;enable-background:new    ;}
	.st2{opacity:0.1397;fill:url(#SVGID_1_);enable-background:new    ;}
	.st3{fill:#076FB1;}
	.st4{fill:#DDDDFC;}
	.st5{fill:#F6F6FF;}
	.st6{fill:#B6B6DD;}
	.st7{fill:#C7C7EA;}
	.st8{fill:#FFFFFF;}
	.st9{fill:#E4E4F4;}
	.st10{fill:#CECEEF;}
	.st11{fill:#E8F0F4;}
	.st12{fill:#D8D8D8;}
	.st13{fill:#F0F0FC;}
	.st14{fill:#FCFCFC;}
	.st15{fill:#F7F7F7;}
	.st16{fill:#DADEE0;}
	.st17{fill:#E8E8E8;}
</style>
<path class="st0" d="M673,194c43.1,0,78-34.9,78-78c0-43.1-34.9-78-78-78s-78,34.9-78,78C595,159.1,629.9,194,673,194z"/>
<path class="st1" d="M50,679c27.6,0,50-22.4,50-50s-22.4-50-50-50S0,601.4,0,629S22.4,679,50,679z"/>
<linearGradient id="SVGID_1_" gradientUnits="userSpaceOnUse" x1="402.2405" y1="60.922" x2="402.2405" y2="595.038" gradientTransform="matrix(1 0 0 -1 0 792)">
	<stop  offset="0" style="stop-color:#FFFFFF"/>
	<stop  offset="1" style="stop-color:#DDDDFF"/>
</linearGradient>
<path class="st2" d="M51.1,278.1c-0.8,2.7-1.1,27.7-1.1,60.5v2.6c0,67.5,1.1,294.3,1.1,299.9c-0.1,33.3,19.7,68.4,69.5,102.6
	c72.9,50.2,127,30.4,179.5,18.4c43.6-9.9,84.7-19.8,130.9,5.9c101.7,56.7,171.7-3.2,278.7-73.9c28.5-18.8,41.9-41.1,43.4-65.1
	c0.4-6.3,1.3-79.4,1.3-145.4v-1.9c0-52.1-0.6-99.3-2.4-104.5c-20.4-58.1-99.5-48.1-190.8-97C462.9,227.4,374,197,295.1,197
	c-43.5,0-84,9.3-121.3,29.2C118,256,64.8,231.9,51.1,278.1z"/>
<path class="st3" d="M709.7,461.2c-107,70.8-175,9.6-276.7-47.1c-101.7-56.7-178.9,59.6-312.4-32.2C-13,290,68.9,192.6,173.9,136.6
	c104.9-56,234.9-27.8,387.4,54C711.2,270.9,816.7,390.4,709.7,461.2z"/>
<path class="st4" d="M291.3,297.2c0.2,3.2,4.5,5.4,4.5,5.4l196.6,109.2c0,0,5.6,3.6,12.4,0C512,408,661.8,320,661.8,320
	s6.2-2.8,6.6-7.9c0,0.2,0,0.4,0,0.7v8c0,5.4-6.6,8.5-6.6,8.5S512,412.3,504.7,416.2c-6.8,3.6-12.4,0-12.4,0L295.7,306.9
	c0,0-4.5-2.3-4.5-5.6v-3.1c0-0.1,0-0.9,0-1.6C291.3,296.9,291.3,297.2,291.3,297.2z"/>
<path class="st5" d="M295.1,290.7l163-95.6c5.9-3.2,10.1,0,10.1,0l193.6,107.8c0,0,6.6,3.6,6.6,8.7c0,0.2,0,0.4,0,0.6
	c-0.4,5.1-6.6,7.9-6.6,7.9S512,408,504.7,411.8c-6.8,3.6-12.4,0-12.4,0L295.7,302.6c0,0-4.2-2.2-4.5-5.4c0,0,0-0.3,0-0.5
	c0-0.6,0-1.4,0-1.5C291.3,292.6,295.1,290.7,295.1,290.7z"/>
<path class="st4" d="M675.9,303.5c0.2-0.1,0.3-0.2,0.5-0.3c4.3-3,3.6-9.5,3.6-9.5s0-163.8-0.4-171.8c-0.4-7.4-6.5-10.2-6.5-10.2
	L473.6,2.6c0,0-4.2-2.3-7.1-0.8c0,0-0.2,0.1-0.5,0.3c-0.1,0.1-0.3,0.2-0.5,0.3c0,0,0,0,0,0c0.8-0.5,2.4-1.3,2.9-1.6
	c0.3-0.1,0.5-0.3,0.5-0.3c2.9-1.5,8.2,1.2,8.2,1.2l199.5,109.1c0,0,6.1,2.8,6.5,10.2c0.4,8,0.4,171.8,0.4,171.8s0.7,6.5-3.6,9.5
	c-0.2,0.1-0.3,0.2-0.5,0.3c-4.6,2.7-9.1,1.9-9.1,1.9h0C672.3,304.6,674.2,304.5,675.9,303.5z"/>
<path class="st5" d="M464.7,2.8c0,0,0.4-0.3,0.9-0.5c0.2-0.1,0.3-0.2,0.5-0.3c0.3-0.1,0.5-0.3,0.5-0.3c2.9-1.5,7.1,0.8,7.1,0.8
	l199.5,109.1c0,0,6.1,2.8,6.5,10.2c0.4,8,0.4,171.8,0.4,171.8s0.7,6.5-3.6,9.5c-0.2,0.1-0.3,0.2-0.5,0.3c-1.7,1-3.7,1.1-5.5,0.9
	c-3.1-0.4-5.7-1.8-5.7-1.8L468.1,192.7c0,0-5-1.8-5.3-8.3L462.7,8.3C462.7,8.3,462.4,4.1,464.7,2.8z"/>
<path class="st4" d="M613.9,307.5l0-0.2C613.8,307.4,613.9,307.4,613.9,307.5z"/>
<path class="st4" d="M613.8,307.3L613.8,307.3C613.8,307.3,613.8,307.3,613.8,307.3L613.8,307.3z"/>
<path class="st4" d="M640.2,309l-10,5.5c-1.8,1-3,0.9-4.5,0.1l-10.8-5.9c-0.6-0.4-0.9-0.8-1-1.2l0.1,0.9c0.1,0.4,0.5,0.8,0.9,1.1
	l10.8,5.9c1.5,0.8,2.7,0.9,4.5-0.1l10-5.5c0.6-0.3,1.2-0.6,1.3-1.3l0.1-1.3h0C641.6,307.9,641.1,308.5,640.2,309z"/>
<path class="st4" d="M594,296.5l0-0.2C594,296.4,594,296.4,594,296.5z"/>
<path class="st4" d="M594,296.3L594,296.3L594,296.3L594,296.3z"/>
<path class="st4" d="M620.4,298l-10,5.5c-1.8,1-3,0.9-4.5,0.1l-10.8-5.9c-0.6-0.4-0.9-0.8-1-1.2l0.1,0.9c0.1,0.4,0.5,0.8,0.9,1.1
	l10.8,5.9c1.5,0.8,2.7,0.9,4.5-0.1l10-5.5c0.6-0.3,1.2-0.6,1.3-1.3l0.1-1.3l0,0C621.8,296.9,621.3,297.5,620.4,298z"/>
<path class="st4" d="M600.8,286.8l-10,5.5c-1.8,1-3,0.9-4.5,0.1l-10.8-5.9c-0.6-0.4-0.9-0.8-1-1.2l0.1,0.9c0.1,0.4,0.5,0.8,0.9,1.1
	l10.8,5.9c1.5,0.8,2.7,0.9,4.5-0.1l10-5.5c0.6-0.3,1.2-0.6,1.3-1.3l0.1-1.3h0C602.2,285.7,601.7,286.4,600.8,286.8z"/>
<path class="st4" d="M555.3,273.8l0-0.2C555.2,273.6,555.3,273.7,555.3,273.8z"/>
<path class="st4" d="M555.2,273.5L555.2,273.5L555.2,273.5L555.2,273.5z"/>
<path class="st4" d="M581.7,275.3l-10,5.5c-1.8,1-3,0.9-4.5,0.1l-10.8-5.9c-0.6-0.4-0.9-0.8-1-1.2l0.1,0.9c0.1,0.4,0.5,0.8,0.9,1.1
	l10.8,5.9c1.5,0.8,2.7,0.9,4.5-0.1l10-5.5c0.6-0.3,1.2-0.6,1.3-1.3l0.1-1.3h0C583,274.2,582.5,274.8,581.7,275.3z"/>
<path class="st4" d="M535.4,262.8l0-0.2C535.4,262.6,535.4,262.7,535.4,262.8z"/>
<path class="st4" d="M535.4,262.5L535.4,262.5L535.4,262.5L535.4,262.5z"/>
<path class="st4" d="M561.8,264.3l-10,5.5c-1.8,1-3,0.9-4.5,0.1l-10.8-5.9c-0.6-0.4-0.9-0.8-1-1.2l0.1,0.9c0.1,0.4,0.5,0.8,0.9,1.1
	l10.8,5.9c1.5,0.8,2.7,0.9,4.5-0.1l10-5.5c0.6-0.3,1.2-0.6,1.3-1.3l0.1-1.3l0,0C563.2,263.2,562.7,263.8,561.8,264.3z"/>
<path class="st4" d="M542.2,253.1l-10,5.5c-1.8,1-3,0.9-4.5,0.1l-10.8-5.9c-0.6-0.4-0.9-0.8-1-1.2l0.1,0.9c0.1,0.4,0.5,0.8,0.9,1.1
	l10.8,5.9c1.5,0.8,2.7,0.9,4.5-0.1l10-5.5c0.6-0.3,1.2-0.6,1.3-1.3l0.1-1.3h0C543.6,252,543.1,252.6,542.2,253.1z"/>
<path class="st4" d="M496.2,240.4L496.2,240.4C496.2,240.4,496.2,240.4,496.2,240.4L496.2,240.4z"/>
<path class="st4" d="M522.6,242.1l-10,5.5c-1.8,1-3,0.9-4.5,0.1l-10.8-5.9c-0.6-0.4-0.9-0.8-1-1.2l0.1,0.9c0.1,0.4,0.5,0.8,0.9,1.1
	l10.8,5.9c1.5,0.8,2.7,0.9,4.5-0.1l10-5.5c0.6-0.3,1.2-0.6,1.3-1.3l0.1-1.3h0C524,241,523.5,241.6,522.6,242.1z"/>
<path class="st4" d="M476.4,229.6l0-0.2C476.4,229.4,476.4,229.5,476.4,229.6z"/>
<path class="st4" d="M476.4,229.4L476.4,229.4L476.4,229.4L476.4,229.4z"/>
<path class="st4" d="M502.8,231.1l-10,5.5c-1.8,1-3,0.9-4.5,0.1l-10.8-5.9c-0.6-0.4-0.9-0.8-1-1.2l0.1,0.9c0.1,0.4,0.5,0.8,0.9,1.1
	l10.8,5.9c1.5,0.8,2.7,0.9,4.5-0.1l10-5.5c0.6-0.3,1.2-0.6,1.3-1.3l0.1-1.3l0,0C504.1,230,503.6,230.6,502.8,231.1z"/>
<path class="st4" d="M483.2,219.9l-10,5.5c-1.8,1-3,0.9-4.5,0.1l-10.8-5.9c-0.6-0.4-0.9-0.8-1-1.2l0.1,0.9c0.1,0.4,0.5,0.8,0.9,1.1
	l10.8,5.9c1.5,0.8,2.7,0.9,4.5-0.1l10-5.5c0.6-0.3,1.2-0.6,1.3-1.3l0.1-1.3h0C484.5,218.8,484,219.4,483.2,219.9z"/>
<path class="st4" d="M594.4,318.7l0-0.2C594.3,318.5,594.3,318.6,594.4,318.7z"/>
<path class="st4" d="M594.3,318.4L594.3,318.4C594.3,318.5,594.3,318.4,594.3,318.4L594.3,318.4z"/>
<path class="st4" d="M574.5,307.7l0-0.2C574.5,307.5,574.5,307.6,574.5,307.7z"/>
<path class="st4" d="M574.5,307.4L574.5,307.4C574.5,307.4,574.5,307.4,574.5,307.4L574.5,307.4z"/>
<path class="st4" d="M600.9,309.2l-10,5.5c-1.8,1-3,0.9-4.5,0.1l-10.8-5.9c-0.6-0.4-0.9-0.8-1-1.2l0.1,0.9c0.1,0.4,0.5,0.8,0.9,1.1
	l10.8,5.9c1.5,0.8,2.7,0.9,4.5-0.1l10-5.5c0.6-0.3,1.2-0.6,1.3-1.3l0.1-1.3l0,0C602.3,308.1,601.8,308.7,600.9,309.2z"/>
<path class="st4" d="M581.3,298l-10,5.5c-1.8,1-3,0.9-4.5,0.1l-10.8-5.9c-0.6-0.4-0.9-0.8-1-1.2l0.1,0.9c0.1,0.4,0.5,0.8,0.9,1.1
	l10.8,5.9c1.5,0.8,2.7,0.9,4.5-0.1l10-5.5c0.6-0.3,1.2-0.6,1.3-1.3l0.1-1.3h0C582.6,296.9,582.1,297.5,581.3,298z"/>
<path class="st4" d="M535.8,285l0-0.2C535.7,284.8,535.7,284.9,535.8,285z"/>
<path class="st4" d="M535.7,284.7L535.7,284.7C535.7,284.7,535.7,284.7,535.7,284.7L535.7,284.7z"/>
<path class="st4" d="M562.1,286.4l-10,5.5c-1.8,1-3,0.9-4.5,0.1l-10.8-5.9c-0.6-0.4-0.9-0.8-1-1.2l0.1,0.9c0.1,0.4,0.5,0.8,0.9,1.1
	l10.8,5.9c1.5,0.8,2.7,0.9,4.5-0.1l10-5.5c0.6-0.3,1.2-0.6,1.3-1.3l0.1-1.3h0C563.5,285.3,563,286,562.1,286.4z"/>
<path class="st4" d="M515.9,273.9l0-0.2C515.9,273.8,515.9,273.9,515.9,273.9z"/>
<path class="st4" d="M515.9,273.7L515.9,273.7C515.9,273.7,515.9,273.7,515.9,273.7L515.9,273.7z"/>
<path class="st4" d="M542.3,275.4l-10,5.5c-1.8,1-3,0.9-4.5,0.1l-10.8-5.9c-0.6-0.4-0.9-0.8-1-1.2l0.1,0.9c0.1,0.4,0.5,0.8,0.9,1.1
	l10.8,5.9c1.5,0.8,2.7,0.9,4.5-0.1l10-5.5c0.6-0.3,1.2-0.6,1.3-1.3l0.1-1.3h0C543.7,274.3,543.2,275,542.3,275.4z"/>
<path class="st4" d="M522.7,264.3l-10,5.5c-1.8,1-3,0.9-4.5,0.1l-10.8-5.9c-0.6-0.4-0.9-0.8-1-1.2l0.1,0.9c0.1,0.4,0.5,0.8,0.9,1.1
	l10.8,5.9c1.5,0.8,2.7,0.9,4.5-0.1l10-5.5c0.6-0.3,1.2-0.6,1.3-1.3l0.1-1.3h0C524,263.2,523.5,263.8,522.7,264.3z"/>
<path class="st4" d="M476.7,251.8l0-0.2C476.7,251.6,476.7,251.7,476.7,251.8z"/>
<path class="st4" d="M476.7,251.5L476.7,251.5C476.7,251.5,476.7,251.5,476.7,251.5L476.7,251.5z"/>
<path class="st4" d="M503.1,253.3l-10,5.5c-1.8,1-3,0.9-4.5,0.1l-10.8-5.9c-0.6-0.4-0.9-0.8-1-1.2l0.1,0.9c0.1,0.4,0.5,0.8,0.9,1.1
	l10.8,5.9c1.5,0.8,2.7,0.9,4.5-0.1l10-5.5c0.6-0.3,1.2-0.6,1.3-1.3l0.1-1.3h0C504.5,252.1,504,252.8,503.1,253.3z"/>
<path class="st4" d="M456.9,240.8l0-0.2C456.9,240.6,456.9,240.7,456.9,240.8z"/>
<path class="st4" d="M456.9,240.5L456.9,240.5L456.9,240.5L456.9,240.5z"/>
<path class="st4" d="M483.3,242.3l-10,5.5c-1.8,1-3,0.9-4.5,0.1l-10.8-5.9c-0.6-0.4-0.9-0.8-1-1.2l0.1,0.9c0.1,0.4,0.5,0.8,0.9,1.1
	l10.8,5.9c1.5,0.8,2.7,0.9,4.5-0.1l10-5.5c0.6-0.3,1.2-0.6,1.3-1.3l0.1-1.3l0,0C484.6,241.1,484.1,241.8,483.3,242.3z"/>
<path class="st4" d="M573.3,329.9l0-0.2C573.2,329.7,573.3,329.8,573.3,329.9z"/>
<path class="st4" d="M573.2,329.6L573.2,329.6C573.2,329.6,573.2,329.6,573.2,329.6L573.2,329.6z"/>
<path class="st4" d="M553.4,318.9l0-0.2C553.4,318.7,553.4,318.8,553.4,318.9z"/>
<path class="st4" d="M553.4,318.6L553.4,318.6L553.4,318.6L553.4,318.6z"/>
<path class="st4" d="M579.8,320.3l-10,5.5c-1.8,1-3,0.9-4.5,0.1l-10.8-5.9c-0.6-0.4-0.9-0.8-1-1.2l0.1,0.9c0.1,0.4,0.5,0.8,0.9,1.1
	l10.8,5.9c1.5,0.8,2.7,0.9,4.5-0.1l10-5.5c0.6-0.3,1.2-0.6,1.3-1.3l0.1-1.3l0,0C581.2,319.2,580.7,319.9,579.8,320.3z"/>
<path class="st4" d="M560.2,309.2l-10,5.5c-1.8,1-3,0.9-4.5,0.1l-10.8-5.9c-0.6-0.4-0.9-0.8-1-1.2l0.1,0.9c0.1,0.4,0.5,0.8,0.9,1.1
	l10.8,5.9c1.5,0.8,2.7,0.9,4.5-0.1l10-5.5c0.6-0.3,1.2-0.6,1.3-1.3l0.1-1.3h0C561.6,308.1,561.1,308.7,560.2,309.2z"/>
<path class="st4" d="M514.7,296.1l0-0.2C514.7,296,514.7,296,514.7,296.1z"/>
<path class="st4" d="M514.6,295.9L514.6,295.9C514.6,295.9,514.6,295.9,514.6,295.9L514.6,295.9z"/>
<path class="st4" d="M541.1,297.6l-10,5.5c-1.8,1-3,0.9-4.5,0.1l-10.8-5.9c-0.6-0.4-0.9-0.8-1-1.2l0.1,0.9c0.1,0.4,0.5,0.8,0.9,1.1
	l10.8,5.9c1.5,0.8,2.7,0.9,4.5-0.1l10-5.5c0.6-0.3,1.2-0.6,1.3-1.3l0.1-1.3h0C542.4,296.5,541.9,297.1,541.1,297.6z"/>
<path class="st4" d="M494.8,285.1l0-0.2C494.8,285,494.8,285,494.8,285.1z"/>
<path class="st4" d="M494.8,284.9L494.8,284.9L494.8,284.9L494.8,284.9z"/>
<path class="st4" d="M521.2,286.6l-10,5.5c-1.8,1-3,0.9-4.5,0.1l-10.8-5.9c-0.6-0.4-0.9-0.8-1-1.2l0.1,0.9c0.1,0.4,0.5,0.8,0.9,1.1
	l10.8,5.9c1.5,0.8,2.7,0.9,4.5-0.1l10-5.5c0.6-0.3,1.2-0.6,1.3-1.3l0.1-1.3l0,0C522.6,285.5,522.1,286.1,521.2,286.6z"/>
<path class="st4" d="M501.6,275.4l-10,5.5c-1.8,1-3,0.9-4.5,0.1l-10.8-5.9c-0.6-0.4-0.9-0.8-1-1.2l0.1,0.9c0.1,0.4,0.5,0.8,0.9,1.1
	l10.8,5.9c1.5,0.8,2.7,0.9,4.5-0.1l10-5.5c0.6-0.3,1.2-0.6,1.3-1.3l0.1-1.3h0C503,274.3,502.5,275,501.6,275.4z"/>
<path class="st4" d="M455.7,262.9l0-0.2C455.6,262.8,455.6,262.9,455.7,262.9z"/>
<path class="st4" d="M455.6,262.7L455.6,262.7C455.6,262.7,455.6,262.7,455.6,262.7L455.6,262.7z"/>
<path class="st4" d="M482,264.4l-10,5.5c-1.8,1-3,0.9-4.5,0.1l-10.8-5.9c-0.6-0.4-0.9-0.8-1-1.2l0.1,0.9c0.1,0.4,0.5,0.8,0.9,1.1
	l10.8,5.9c1.5,0.8,2.7,0.9,4.5-0.1l10-5.5c0.6-0.3,1.2-0.6,1.3-1.3l0.1-1.3h0C483.4,263.3,482.9,264,482,264.4z"/>
<path class="st4" d="M435.8,251.9l0-0.2C435.8,251.8,435.8,251.9,435.8,251.9z"/>
<path class="st4" d="M435.8,251.7L435.8,251.7L435.8,251.7L435.8,251.7z"/>
<path class="st4" d="M462.2,253.4l-10,5.5c-1.8,1-3,0.9-4.5,0.1l-10.8-5.9c-0.6-0.4-0.9-0.8-1-1.2l0.1,0.9c0.1,0.4,0.5,0.8,0.9,1.1
	l10.8,5.9c1.5,0.8,2.7,0.9,4.5-0.1l10-5.5c0.6-0.3,1.2-0.6,1.3-1.3l0.1-1.3l0,0C463.6,252.3,463,252.9,462.2,253.4z"/>
<path class="st4" d="M463.7,231.3l-10,5.5c-1.8,1-3,0.9-4.5,0.1l-10.8-5.9c-0.6-0.4-0.9-0.8-1-1.2l0.1,0.9c0.1,0.4,0.5,0.8,0.9,1.1
	l10.8,5.9c1.5,0.8,2.7,0.9,4.5-0.1l10-5.5c0.6-0.3,1.2-0.6,1.3-1.3l0.1-1.3l0,0C465,230.2,464.5,230.8,463.7,231.3z"/>
<path class="st4" d="M442.6,242.4l-10,5.5c-1.8,1-3,0.9-4.5,0.1l-10.8-5.9c-0.6-0.4-0.9-0.8-1-1.2l0.1,0.9c0.1,0.4,0.5,0.8,0.9,1.1
	l10.8,5.9c1.5,0.8,2.7,0.9,4.5-0.1l10-5.5c0.6-0.3,1.2-0.6,1.3-1.3l0.1-1.3l0,0C443.9,241.3,443.4,242,442.6,242.4z"/>
<path class="st4" d="M620.5,320.3l-31.1,16.6c-1.8,1-3,0.9-4.5,0.1l-10.8-5.9c-0.6-0.4-0.9-0.8-1-1.2l0.1,0.9
	c0.1,0.4,0.5,0.8,0.9,1.1l10.8,5.9c1.5,0.8,2.7,0.9,4.5-0.1l31.1-16.6c0.6-0.3,1.2-0.6,1.3-1.3l0.1-1.3h0
	C621.8,319.1,621.3,319.8,620.5,320.3z"/>
<path class="st4" d="M553.8,341l0-0.2C553.7,340.9,553.7,340.9,553.8,341z"/>
<path class="st4" d="M553.7,340.8L553.7,340.8C553.7,340.8,553.7,340.8,553.7,340.8L553.7,340.8z"/>
<path class="st4" d="M580.1,342.5l-10,5.5c-1.8,1-3,0.9-4.5,0.1l-10.8-5.9c-0.6-0.4-0.9-0.8-1-1.2l0.1,0.9c0.1,0.4,0.5,0.8,0.9,1.1
	l10.8,5.9c1.5,0.8,2.7,0.9,4.5-0.1l10-5.5c0.6-0.3,1.2-0.6,1.3-1.3l0.1-1.3h0C581.5,341.4,581,342,580.1,342.5z"/>
<path class="st4" d="M533.9,330l0-0.2C533.9,329.9,533.9,329.9,533.9,330z"/>
<path class="st4" d="M533.9,329.8L533.9,329.8C533.9,329.8,533.9,329.8,533.9,329.8L533.9,329.8z"/>
<path class="st4" d="M560.3,331.5l-10,5.5c-1.8,1-3,0.9-4.5,0.1l-10.8-5.9c-0.6-0.4-0.9-0.8-1-1.2l0.1,0.9c0.1,0.4,0.5,0.8,0.9,1.1
	l10.8,5.9c1.5,0.8,2.7,0.9,4.5-0.1l10-5.5c0.6-0.3,1.2-0.6,1.3-1.3l0.1-1.3l0,0C561.7,330.4,561.2,331,560.3,331.5z"/>
<path class="st4" d="M540.7,320.3l-10,5.5c-1.8,1-3,0.9-4.5,0.1l-10.8-5.9c-0.6-0.4-0.9-0.8-1-1.2l0.1,0.9c0.1,0.4,0.5,0.8,0.9,1.1
	l10.8,5.9c1.5,0.8,2.7,0.9,4.5-0.1l10-5.5c0.6-0.3,1.2-0.6,1.3-1.3l0.1-1.3h0C542,319.2,541.5,319.9,540.7,320.3z"/>
<path class="st4" d="M495.2,307.3l0-0.2C495.1,307.1,495.1,307.2,495.2,307.3z"/>
<path class="st4" d="M495.1,307L495.1,307C495.1,307,495.1,307,495.1,307L495.1,307z"/>
<path class="st4" d="M521.5,308.8l-10,5.5c-1.8,1-3,0.9-4.5,0.1l-10.8-5.9c-0.6-0.4-0.9-0.8-1-1.2l0.1,0.9c0.1,0.4,0.5,0.8,0.9,1.1
	l10.8,5.9c1.5,0.8,2.7,0.9,4.5-0.1l10-5.5c0.6-0.3,1.2-0.6,1.3-1.3l0.1-1.3h0C522.9,307.7,522.4,308.3,521.5,308.8z"/>
<path class="st4" d="M475.3,296.3l0-0.2C475.3,296.1,475.3,296.2,475.3,296.3z"/>
<path class="st4" d="M475.3,296L475.3,296L475.3,296L475.3,296z"/>
<path class="st4" d="M501.7,297.8l-10,5.5c-1.8,1-3,0.9-4.5,0.1l-10.8-5.9c-0.6-0.4-0.9-0.8-1-1.2l0.1,0.9c0.1,0.4,0.5,0.8,0.9,1.1
	l10.8,5.9c1.5,0.8,2.7,0.9,4.5-0.1l10-5.5c0.6-0.3,1.2-0.6,1.3-1.3l0.1-1.3l0,0C503.1,296.6,502.6,297.3,501.7,297.8z"/>
<path class="st4" d="M482.1,286.6l-10,5.5c-1.8,1-3,0.9-4.5,0.1l-10.8-5.9c-0.6-0.4-0.9-0.8-1-1.2l0.1,0.9c0.1,0.4,0.5,0.8,0.9,1.1
	l10.8,5.9c1.5,0.8,2.7,0.9,4.5-0.1l10-5.5c0.6-0.3,1.2-0.6,1.3-1.3l0.1-1.3h0C483.4,285.5,482.9,286.1,482.1,286.6z"/>
<path class="st4" d="M436.1,274.1l0-0.2C436.1,274,436.1,274,436.1,274.1z"/>
<path class="st4" d="M436.1,273.9L436.1,273.9C436.1,273.9,436.1,273.9,436.1,273.9L436.1,273.9z"/>
<path class="st4" d="M462.5,275.6l-10,5.5c-1.8,1-3,0.9-4.5,0.1l-10.8-5.9c-0.6-0.4-0.9-0.8-1-1.2l0.1,0.9c0.1,0.4,0.5,0.8,0.9,1.1
	L448,282c1.5,0.8,2.7,0.9,4.5-0.1l10-5.5c0.6-0.3,1.2-0.6,1.3-1.3l0.1-1.3h0C463.9,274.5,463.4,275.1,462.5,275.6z"/>
<path class="st4" d="M416.3,263.1l0-0.2C416.3,262.9,416.3,263,416.3,263.1z"/>
<path class="st4" d="M416.3,262.9L416.3,262.9L416.3,262.9L416.3,262.9z"/>
<path class="st4" d="M442.7,264.6l-10,5.5c-1.8,1-3,0.9-4.5,0.1l-10.8-5.9c-0.6-0.4-0.9-0.8-1-1.2l0.1,0.9c0.1,0.4,0.5,0.8,0.9,1.1
	l10.8,5.9c1.5,0.8,2.7,0.9,4.5-0.1l10-5.5c0.6-0.3,1.2-0.6,1.3-1.3l0.1-1.3h0C444,263.5,443.5,264.1,442.7,264.6z"/>
<path class="st4" d="M423.1,253.4l-10,5.5c-1.8,1-3,0.9-4.5,0.1l-10.8-5.9c-0.6-0.4-0.9-0.8-1-1.2l0.1,0.9c0.1,0.4,0.5,0.8,0.9,1.1
	l10.8,5.9c1.5,0.8,2.7,0.9,4.5-0.1l10-5.5c0.6-0.3,1.2-0.6,1.3-1.3l0.1-1.3h0C424.4,252.3,423.9,252.9,423.1,253.4z"/>
<path class="st4" d="M532.7,352.2l0-0.2C532.7,352,532.7,352.1,532.7,352.2z"/>
<path class="st4" d="M532.7,351.9L532.7,351.9L532.7,351.9L532.7,351.9z"/>
<path class="st4" d="M559.1,353.7l-10,5.5c-1.8,1-3,0.9-4.5,0.1l-10.8-5.9c-0.6-0.4-0.9-0.8-1-1.2l0.1,0.9c0.1,0.4,0.5,0.8,0.9,1.1
	l10.8,5.9c1.5,0.8,2.7,0.9,4.5-0.1l10-5.5c0.6-0.3,1.2-0.6,1.3-1.3l0.1-1.3h0C560.4,352.6,559.9,353.2,559.1,353.7z"/>
<path class="st4" d="M512.8,341.2l0-0.2C512.8,341,512.8,341.1,512.8,341.2z"/>
<path class="st4" d="M512.8,340.9L512.8,340.9C512.8,340.9,512.8,340.9,512.8,340.9L512.8,340.9z"/>
<path class="st4" d="M539.2,342.7l-10,5.5c-1.8,1-3,0.9-4.5,0.1l-10.8-5.9c-0.6-0.4-0.9-0.8-1-1.2l0.1,0.9c0.1,0.4,0.5,0.8,0.9,1.1
	l10.8,5.9c1.5,0.8,2.7,0.9,4.5-0.1l10.1-5.5c0.6-0.3,1.2-0.6,1.3-1.3l0.1-1.3l0,0C540.6,341.6,540.1,342.2,539.2,342.7z"/>
<path class="st4" d="M519.6,331.5l-10,5.5c-1.8,1-3,0.9-4.5,0.1l-89-50.6c-0.6-0.4-0.9-0.8-1-1.2l0.1,0.9c0.1,0.4,0.5,0.8,0.9,1.1
	l89,50.6c1.5,0.8,2.7,0.9,4.5-0.1l10-5.5c0.6-0.3,1.2-0.6,1.3-1.3l0.1-1.3h0C521,330.4,520.5,331,519.6,331.5z"/>
<path class="st4" d="M474.1,318.4l0-0.2C474.1,318.3,474.1,318.4,474.1,318.4z"/>
<path class="st4" d="M474.1,318.2L474.1,318.2C474.1,318.2,474.1,318.2,474.1,318.2L474.1,318.2z"/>
<path class="st4" d="M454.3,307.4l0-0.2C454.2,307.3,454.2,307.4,454.3,307.4z"/>
<path class="st4" d="M454.2,307.2L454.2,307.2L454.2,307.2L454.2,307.2z"/>
<path class="st4" d="M415.1,285.3l0-0.2C415,285.1,415,285.2,415.1,285.3z"/>
<path class="st4" d="M415,285L415,285C415,285,415,285,415,285L415,285z"/>
<path class="st4" d="M395.2,274.3l0-0.2C395.2,274.1,395.2,274.2,395.2,274.3z"/>
<path class="st4" d="M395.2,274L395.2,274L395.2,274L395.2,274z"/>
<path class="st4" d="M421.6,275.8l-10,5.5c-1.8,1-3,0.9-4.5,0.1l-10.8-5.9c-0.6-0.4-0.9-0.8-1-1.2l0.1,0.9c0.1,0.4,0.5,0.8,0.9,1.1
	l10.8,5.9c1.5,0.8,2.7,0.9,4.5-0.1l10-5.5c0.6-0.3,1.2-0.6,1.3-1.3l0.1-1.3h0C423,274.6,422.5,275.3,421.6,275.8z"/>
<path class="st4" d="M402,264.6l-10,5.5c-1.8,1-3,0.9-4.5,0.1l-10.8-5.9c-0.6-0.4-0.9-0.8-1-1.2l0.1,0.9c0.1,0.4,0.5,0.8,0.9,1.1
	l10.8,5.9c1.5,0.8,2.7,0.9,4.5-0.1l10-5.5c0.6-0.3,1.2-0.6,1.3-1.3l0.1-1.3h0C403.3,263.5,402.8,264.1,402,264.6z"/>
<path class="st3" d="M465.8,13.3l0.1,167c0.2,6.1,5,7.8,5,7.8l191.6,107.6c0,0,2.5,1.4,5.4,1.7c1.7,0.2,3.6,0.1,5.2-0.9
	c0.2-0.1,0.3-0.2,0.5-0.3c3.4-2.6,3.4-9.1,3.4-9.1V124.5c-0.3-7-6.5-9.6-6.5-9.6L472.9,6.1c0,0-3.8-2.1-5.5-0.2
	C465.6,7.8,465.8,9,465.8,13.3z"/>
<path class="st6" d="M645.9,334.4l6.9-3.9c1.1-0.6,1.7-2.1,1.1-3.1c0.7,0.1,1.3,0.4,1.7,1c0.6,1,0,2.6-1.1,3.2l-6.9,3.9
	c-0.6,0.4-1.4,0.4-2,0.1c-0.5-0.2-0.9-0.5-1.1-0.9c0,0,0,0,0-0.1C644.9,334.7,645.4,334.7,645.9,334.4z"/>
<path class="st7" d="M645.5,331.6l6.9-3.9c0.4-0.2,0.8-0.3,1.2-0.3c0.1,0,0.2,0,0.3,0c0.6,1,0,2.5-1.1,3.1l-6.9,3.9
	c-0.5,0.3-1,0.3-1.5,0.3C643.8,333.6,644.5,332.2,645.5,331.6z"/>
<path class="st8" d="M518.5,47.2v159.1l104.3,57.4V104.7L518.5,47.2z"/>
<path class="st4" d="M518.5,58.9l104.3,57.4v57.7l-104.3-57.4V58.9z"/>
<path class="st4" d="M531,156.2v15.3l20.7,11.3v-15.1L531,156.2z"/>
<path class="st4" d="M543.3,139.6v4.5l53.3,29.7v-4.3L543.3,139.6z"/>
<path class="st4" d="M552.3,152.4v3.8l35.5,19.5v-3.5L552.3,152.4z"/>
<path class="st4" d="M531,173.8v2l20.7,11.3v-1.8L531,173.8z"/>
<path class="st4" d="M531,178.5v2l16.5,9.1v-1.8L531,178.5z"/>
<path class="st4" d="M559,171.7V187l20.7,11.3v-15.1L559,171.7z"/>
<path class="st4" d="M559,189.3v2l20.7,11.3v-1.8L559,189.3z"/>
<path class="st4" d="M559,193.7v2l16.5,9.1V203L559,193.7z"/>
<path class="st4" d="M586.9,187.2v15.3l20.7,11.3v-15.1L586.9,187.2z"/>
<path class="st4" d="M587,226v7.3l18.3,10v-7.1L587,226z"/>
<path class="st4" d="M586.9,204.8v2l20.7,11.3v-1.8L586.9,204.8z"/>
<path class="st4" d="M587,209.2v2l16.5,9.1v-1.8L587,209.2z"/>
<path class="st9" d="M587,226l1.3-0.6l18,10.2l-1.1,0.6L587,226z"/>
<path class="st10" d="M605.3,236.2l1.1-0.6v7.1l-1.1,0.6V236.2z"/>
<path class="st11" d="M524.6,55.5c0.8-0.7,2.2-0.5,3,0.4c0.8,0.9,0.7,2.2-0.1,2.9c-0.8,0.7-2.2,0.5-3-0.4
	C523.7,57.5,523.8,56.2,524.6,55.5z"/>
<path class="st4" d="M294.6,221.1c0,0-110.4,61.6-114,63.6c-6.3,3.5-12-0.6-12-0.6l-72-40c0,0-2.1-0.9-2.1-3.2c0,0,0,0,0,0v3.9
	c0,1.7,2.6,3.1,2.6,3.1l72.1,40.8c0,0,5.5,3.6,11.8,0c3.6-2.1,113.6-64.3,113.6-64.3s3.3-1.6,3.3-4.3v-2.5
	C297.7,219.7,294.6,221.1,294.6,221.1z"/>
<path class="st5" d="M293.5,212.9l-68.2-38.6c0,0-5.9-4.2-12.7-0.4L96.7,237.7c0,0-2.2,1-2.2,3.2c0,0,0,0,0,0.1
	c0,2.3,2.1,3.2,2.1,3.2l72,40c0,0,5.7,4.1,12,0.6c3.6-2,114-63.6,114-63.6s3.1-1.4,3.3-3.4C298.2,215.4,293.5,212.9,293.5,212.9z"/>
<path class="st3" d="M287.1,218l-98,54.6l-70.3-39.1l97.4-55.1L287.1,218z"/>
<path class="st12" d="M137.1,257.7c0-1.7,2.3-3,5.2-3c2.9,0,5.2,1.4,5.2,3c0,1.7-2.3,3-5.2,3C139.4,260.8,137.1,259.4,137.1,257.7z
	 M136.7,257.7c0,1.8,2.5,3.3,5.6,3.3c3.1,0,5.6-1.5,5.6-3.3s-2.5-3.3-5.6-3.3C139.2,254.5,136.7,255.9,136.7,257.7z"/>
<path class="st8" d="M324.2,107.3l0.1,1.2c0.5,7.7,4.3,51.4,32.3,59c22.5,5.6,28.8-2.5,29.5-3.6l3.3-65.7h-65.7L324.2,107.3
	L324.2,107.3z"/>
<path class="st5" d="M356.6,167.4c-28-7.6-31.9-51.3-32.4-59l3,59.9c0,9.1,13.1,16.5,29.3,16.5c16.2,0,29.3-7.4,29.3-16.5l0.2-4.5
	C385.4,164.9,379,173.1,356.6,167.4z"/>
<path class="st13" d="M356.6,178.9c-15.5,0-28.2-6.6-29.6-15.1c-0.1,0.5-0.1,1.1-0.1,1.6c0,9.2,13.3,16.7,29.7,16.7
	c16.4,0,29.7-7.5,29.7-16.7c0-0.5,0-1.1-0.1-1.6C384.8,172.2,372.1,178.9,356.6,178.9z"/>
<path class="st8" d="M388.8,96c0,10-14.4,18.1-32.2,18.1S324.4,106,324.4,96c0-10,14.4-18.1,32.2-18.1S388.8,86,388.8,96z"/>
<path class="st13" d="M356.6,119.2c-17,0-31-7.3-32.6-16.6c-0.1,0.6-0.2,1.2-0.2,1.8c0,10.2,14.7,18.4,32.8,18.4
	c18.1,0,32.8-8.2,32.8-18.4c0-0.6-0.1-1.2-0.2-1.8C387.6,111.9,373.6,119.2,356.6,119.2z"/>
<path class="st14" d="M356.6,103.8c-16.7,0-30.5-7.2-32-16.3c-0.1,0.6-0.2,1.2-0.2,1.7c0,10,14.4,18.1,32.2,18.1s32.2-8.1,32.2-18.1
	c0-0.6-0.1-1.2-0.2-1.7C387,96.6,373.3,103.8,356.6,103.8z"/>
<path class="st8" d="M357.2,113.7c12.5,1.1,20.1-0.6,24.7-3c3-1.9,5.4-4.2,6.9-6.7c0.1-0.4,0.2-0.6,0.2-0.6s0,0,0.1,0.1
	c0.9-1.7,1.3-3.5,1.3-5.3c0-10.5-15.2-19-33.9-19c-15,0-27.7,5.5-32.2,13.1C324.4,92.7,324.1,111.1,357.2,113.7z"/>
<path class="st5" d="M356.6,117.2c10.1,0,19.2-2.5,25.4-6.4c-4.6,2.4-12.3,4.1-24.7,3c-33.2-2.6-32.8-21-32.8-21.5
	c-1.1,1.9-1.7,3.9-1.7,6C322.7,108.6,337.9,117.2,356.6,117.2z"/>
<path class="st8" d="M388.6,89.5c0,9.9-14.3,18-32,18s-32-8.1-32-18c0-9.9,14.3-18,32-18S388.6,79.5,388.6,89.5z"/>
<path class="st15" d="M356.6,71.7c-17.5,0-31.8,8-31.8,17.8s14.3,17.8,31.8,17.8c17.5,0,31.8-8,31.8-17.8S374.1,71.7,356.6,71.7z
	 M356.6,107.7c-17.8,0-32.2-8.2-32.2-18.2s14.5-18.2,32.2-18.2s32.2,8.2,32.2,18.2S374.4,107.7,356.6,107.7z"/>
<path class="st16" d="M354.4,100.2h7.1c0.2,0,0.4,0,0.5,0.1c0,0,0,0,0,0c0-0.7-0.6-1.2-1.3-1.2h-7.1c-0.7,0-1.3,0.5-1.3,1.2
	c0,0.5,0.3,0.9,0.8,1.1C353.2,100.7,353.7,100.2,354.4,100.2z"/>
<path class="st17" d="M360.8,101.4c0.7,0,1.2-0.5,1.3-1.2c-0.2-0.1-0.3-0.1-0.5-0.1h-7.1c-0.7,0-1.2,0.5-1.3,1.2
	c0.2,0.1,0.3,0.1,0.5,0.1H360.8z"/>
</svg>
